<?xml version="1.0" encoding="UTF-8"?><svg id="Layer_2" xmlns="http://www.w3.org/2000/svg" viewBox="0 0 1356.11 416.9"><defs><style>.cls-1{fill:#010100;}.cls-2{fill:#f6ad06;}.cls-3{fill:#8e0303;}</style></defs><g id="outputsvg"><g id="l7AcYjMAXhPNOWC2mHnueLf"><g><path id="pjXLwt4eb" class="cls-1" d="M227.61,414.55c-7-2.9-12.6-8.6-16.2-16.3-2.1-4.5-2.4-7-2.7-17.6l-.3-12.4-6.2-8.6c-3.4-4.8-6.5-8.9-7-9.1-.4-.3-2.1,1.3-3.7,3.5-4.7,6.6-6.2,7.9-9.3,7.9s-8.1-3.4-8.1-5.5c0-.8-1.4-2.7-3.1-4.3-2.5-2.4-3.3-4-3.7-8.1l-.5-5.1h-4.2c-4,0-7.5-2.1-7.5-4.6,0-.5-1.6-2.9-3.6-5.4-2.1-2.6-3.3-5.2-3.1-6.2,.4-1.4-.1-1.8-2.5-1.8-3,0-5.6-2.2-12-10.2-2.3-3-2.6-4.1-2.2-9.6,.2-4.1,0-6.2-.8-6.2-.6,0-4.1-2-7.8-4.4-8.5-5.6-9.7-8.3-7.1-15.8,2.4-7.2,5.5-9.1,15.8-9.7,.6-.1-3.7-6.6-9.5-14.5-5.9-7.9-14.8-19.9-19.8-26.7-24.5-33.4-29.3-39.7-33-42.7-3.8-3.2-11.6-6.1-26.8-9.8-9.6-2.4-15.4-6.5-19-13.7-2.6-5-3-7-3.2-15.5-.4-14.7,.8-21.1,4.6-24.4,1.6-1.6,3.4-2.8,3.8-2.8,.5,0,4.1,6.6,8.1,14.6l7.2,14.6,4.6-.7c10.4-1.5,23.5-8.2,24.1-12.1,.2-1.1-1.8-6.5-4.3-12-8.6-18.2-8-16.6-5.9-18.1,2.8-2.1,8.5-1,13.7,2.6,6.1,4.2,17.8,17.1,20.6,22.7,2.5,4.9,2.5,4.7,.5,23.1-.5,4.6-.3,7.2,.9,10.2,1.4,3.5,39.5,56.6,45,62.8,1.8,2,2.1,2.1,3.2,.7,.8-1.2,2.7-1.6,7-1.5,6.5,0,21.5-4.1,25.2-7,1.4-1,3.6-1.6,5.5-1.4,1.8,.2,5.7,.3,8.5,.4,4.6,.1,5.8,.6,9.2,3.6,2.1,1.9,4.3,3.5,4.9,3.5,.5,0,2.6,2.3,4.6,5,3.1,4.3,3.6,5.8,3.6,10.6,0,4.3,.8,7.5,3.5,13.3,3.6,8,3.7,10.9,.7,14.4-.8,.9-1.9,1.7-2.5,1.7-1.4,0-7.4,6.6-8.2,8.9-.3,1.1-1.2,2.2-2,2.5s-1.5,1-1.5,1.5c0,.6,2.5-.1,5.6-1.5,7.7-3.4,10.3-2.7,14.3,3.7,1.7,2.8,3.1,5.6,3.1,6.3,0,.8-1.7,3.5-3.9,6.2-2.1,2.7-4.4,6-5.1,7.4-1.5,2.9-1.7,3,7.3-4.3,6.9-5.7,9.1-5.4,14.2,1.9,1.9,2.6,.5,11.1-2.4,15.2-1,1.5-2.6,5.3-3.5,8.4-1.5,5.4-4.7,9.2-7.2,8.7-3.3-.6-2.8,1,2.4,7.9,8.3,10.7,9.6,11.7,18.9,14.2,13.9,3.7,21.4,10.6,25,22.9,4,14-4,31.7-17.4,38.2-7.4,3.6-20.8,3.8-28.8,.5Zm23.6-3.2c10.4-3.1,19-15,19.1-26.8,.2-10.6-6.5-21.5-15.4-25.1-13.5-5.4-28.9-2.1-35.4,7.7-2.3,3.4-3,2.9-1.1-.9,2.4-4.5,7.4-9,12.2-11,2.7-1.1,4.3-2.3,4-3.1-.2-.6-3.9-5.5-8-10.6-5-6.3-8.1-9.3-9.1-8.9-1.9,.7-1.9,.9,2.2,6.4,5.3,7.2,4.7,13.3-1.6,15.9-4.3,1.8-8.7-.4-13.7-6.7-3.6-4.6-3.9-4.7-5.5-3.1-1,1-1.3,2-.8,2.3,2.2,1.3,13.3,17.1,14.1,19.9,.5,1.6,.8,7.5,.7,13-.1,10.8,1,14.7,5.8,21.8,6.5,9.4,19.4,13,32.5,9.2Zm-62-61.3c3.6-7.6,8.6-13.1,11.8-13.1,1,0,5.5-2.2,10.1-5,6.4-3.9,9.3-5,12.5-5,4.7,0,6.5-1.3,6.5-4.8,0-1.7-.4-2.3-1.5-1.8-1,.4-1.8-.6-2.7-3.5-2.7-9.2-9.2-8.5-14.3,1.5-3.3,6.4-7,10-9.3,9.1-.7-.3-5.2,2-9.9,5.2-6.9,4.5-9.5,5.7-13.6,6.1-6.3,.5-7.7,1.6-7.7,5.3,0,2,.9,3.5,3,5.1,1.7,1.2,3,3,3,3.9,0,1,1,2.5,2.3,3.4,4,2.8,5.9,1.6,9.8-6.4Zm-21.2-19.2c3.5-4.8,6.9-7.5,19.3-15.3,7.6-4.8,8.9-6,7.3-6.6-1.8-.6-1.8-.7-.2-1.7,1.2-.6,4.1-.6,8.2,0,3.6,.5,7.1,.7,7.8,.4,.8-.3,2.1-2.1,3.1-4.1,1.5-3.3,1.6-3.7,0-6-.9-1.4-3.9-3.4-6.7-4.5-2.9-1.1-4.4-2-3.4-2,1.9-.1,2-.3,1.1-2.5-.4-.9-1.8-1.6-3.5-1.6-3,0-6,3.2-9.4,10-2.3,4.7-4.7,7.3-5.5,6-.3-.5-5.3,2.9-11,7.5-9.9,8-11.4,8.8-18.9,9.8-.8,.1-1.9,1-2.5,2-.9,1.4-.7,2,.6,2.8,.9,.5,2,2.4,2.3,4.2,1,4.4,2.3,5.7,5.6,5.7,2.2,0,3.6-.9,5.8-4.1Zm-16.6-17.4c1.5-1.4,3.8-4.7,5.2-7.3,1.3-2.6,3.1-5.5,3.8-6.4,1.6-2,3.2-2.4,2-.5-.4,.6,1.7-.9,4.7-3.4,3-2.6,6.6-5.2,7.9-5.9,1.5-.8,2-1.5,1.2-1.9-1.7-1.1,14.4-9.3,17.6-9,4.9,.4,6.1,0,6.8-2.2,.5-1.4,0-2.8-1.4-4.2-1.1-1.2-2.3-4.1-2.7-6.4-1.2-7.4-7.1-6.7-14.5,1.8-3.5,4.1-6.2,6.2-8.7,6.9-2.1,.5-6.4,3.3-9.7,6.2-3.4,2.9-7.2,6.1-8.5,7.1-1.6,1.1-1.8,1.6-.7,1.3,.9-.3,1.7-.1,1.7,.3,0,1.6-8.8,4.4-11.7,3.8-3-.6-7.9,1.7-8.8,4-.2,.8,0,1.1,.5,.8,1.3-.8,1.3,.8-.2,4-1,2.2-.8,2.9,1.3,5.3,1.4,1.5,3.3,3.9,4.2,5.5,2.3,3.5,6.3,3.6,10,.2Zm82.5-.2c.6-1.5,1.2-3.3,1.2-4.1s.7-2.6,1.6-4.2c1.6-2.6,1.6-2.9-.7-5.9-1.9-2.6-2.5-2.9-3.2-1.6-.4,.8-1.3,1.5-2,1.5s-3.1,1.3-5.4,2.8l-4.2,2.8,3.5,2.7c1.8,1.5,3.4,3.3,3.4,3.9,0,1.2,2.9,4.8,3.9,4.8,.3,0,1.2-1.2,1.9-2.7Zm-12.5-21.8c2.6-3.3,2.7-3.6,1.3-6.3-2.3-4.5-4-5.5-8.6-4.7-2.2,.4-4.7,1.4-5.5,2.2-1.4,1.3-.9,2.1,3.7,6.8,2.9,2.9,5.5,5.4,5.8,5.4,.3,.1,1.8-1.5,3.3-3.4Zm-81.8-8.3c2.1-3.3,6.7-7.3,15.8-13.8,7-5,13.6-9.8,14.5-10.8,1.6-1.6,1.6-1.7-.3-1-1.8,.6-1.8,.5-.5-.9,3-3.2,6.9-4.5,10.7-3.7,3.3,.8,3.9,.6,7-2.5,1.8-1.8,3.3-4.2,3.3-5.2,0-2.3-4.2-6.5-6-6.1-.7,.2-2.4-1.3-3.7-3.2s-3-3.8-3.7-4.2c-2.5-1.4-5.5,2.2-7.6,9-2.2,7.6-3.9,9.6-12.6,14.8l-5.9,3.5,2.9-3c4.7-4.9,2.4-3.6-6,3.4-8.8,7.3-13,9.6-19,10.3-5.3,.6-9.5,4.5-9.6,9-.1,3.3,1.8,6.5,3.4,5.6,.5-.3,2.7,1.1,4.9,3.1,3.9,3.5,4,3.5,6.7,1.9,1.5-.9,4.1-3.7,5.7-6.2Zm67.5-12.6c0-.7,.9-2.1,2-3.1s2-2.3,2-3c0-2.9-11.6-10.6-13.3-8.8-.3,.2,.1,1.6,.9,3.1s1.4,3.6,1.4,4.6c0,2.5,4.9,9.7,6.1,9,.5-.3,.9-1.1,.9-1.8Zm-68-10.1c0-.2-3.9-5.8-8.7-12.4-18.2-24.7-36-49-44.1-59.9-8.9-12.1-10.8-15.8-9.8-19.7,.8-3.1,6-6.5,8.9-5.7,4,.9,1.5-2.2,52,65.7,8.1,11,15.3,20,15.9,20,2.7,0,1.4-2.8-5.5-12.1-35.3-47.6-51.7-70.4-53.3-74.2-2-4.8-2.2-11.5-.7-20.1,1.6-9.5,.9-12.4-5.5-20.4-5.9-7.3-10.2-11.5-15.6-15.1-7-4.7-7.1-3.9-1.2,8.8,8.5,18.2,8.2,19.9-4.5,26.5-5.7,3-13.6,5.5-20.1,6.4-5,.7-5.8-.2-13.1-15-3.3-6.8-6.4-12-6.9-11.5-1.3,1.3-2.5,13.4-2.1,21,.5,8.6,1.8,12.5,5.6,16.8,4,4.6,7.1,6.1,18.6,9,20.7,5.2,23.3,6.9,34.2,21.7,44.7,60.5,51.9,70.4,51.9,71.6,0,.9,.5,.9,2,.1,1.1-.6,2-1.3,2-1.5Zm79-2c0-.8-1.6-4.6-3.5-8.7-2.6-5.3-3.5-8.5-3.5-11.8,.2-6.6,0-7.9-1-5.5-.7,1.8-.8,1.7-1.4-1-1.5-6.4-3.9-7.9-8.1-5.1-3.1,2-6.3,7.8-4.6,8.4,.6,.2,1.1,1.2,1.1,2.3,0,3.3,3.2,10,4.5,9.5,.8-.3,1.7,1.1,2.4,3.5,1.5,5,10.5,12.6,12.7,10.8,.8-.6,1.4-1.7,1.4-2.4Zm-21.9-8.2c.7-1.8,.5-3.4-.7-5.9-1.8-3.7-2.9-4.6-1.9-1.5,.3,1.1-.1,3.6-.9,5.6-.9,2.1-1.4,4.1-1.1,4.6,.9,1.4,3.6-.2,4.6-2.8Zm-33.1-9.1c2.6-1.3,3.6-2.5,4.1-5.2,.9-4,5.2-8,8.9-8,1.6,0,4.1,1.6,7.2,4.7,5.4,5.3,7,5,8.9-1.9,.6-2.2,2.1-5,3.5-6.3,2.5-2.3,3.1-4.9,1.3-6-.5-.4-4.1-.8-7.9-1-5.5-.3-7.4,0-9.2,1.4-3.9,3.1-8.8,5.2-10.6,4.7-.9-.3-3.4,.3-5.5,1.3-2.9,1.3-4.9,1.6-9,1-2.8-.3-5.3-.6-5.4-.5s.5,1.5,1.3,3.1c.9,1.7,2.9,5.6,4.6,8.8,1.6,3.1,3.2,5.7,3.6,5.7,.4-.1,2.3-.9,4.2-1.8Z"/><path id="pm43r4LcY" class="cls-1" d="M234.71,410.35c-9-2.4-17.4-10.7-19.1-18.9-.5-2.7-.4-2.6,1.4,1,8.8,17.8,32.3,21.2,45.3,6.6,3.4-3.8,3.8-4.1,2.5-1.5-2.3,4.4-8.7,9.9-13.8,11.7-6.4,2.3-10.8,2.6-16.3,1.1Z"/><path id="pFv9uSPnW" class="cls-1" d="M239.51,403.85c-.3-.6-1.7-.8-3-.5-1.8,.5-3.2-.1-5.5-2.4-1.8-1.6-3.8-3-4.5-3-1.8,0-3.5-3.5-2.8-5.5,.4-.9-.2-2.5-1.2-3.6-1.5-1.7-1.6-2.4-.5-5.4,.7-1.9,1-3.9,.7-4.4-1-1.5,1.2-6.1,2.9-6.1,.9,0,2-1.1,2.5-2.4,1-2.7,3.8-4.6,5.8-3.9,.7,.3,2.2-.3,3.2-1.2,1.4-1.3,2.6-1.5,4.7-.9,1.5,.4,4.2,.9,6,.9,2.1,.2,4.3,1.3,6.1,3.1,1.6,1.6,3.7,3.5,4.7,4.3s1.5,2.3,1.2,3.7c-.2,1.3,.2,2.9,.9,3.5,1.7,1.4,1.8,5.5,.3,6.4-.5,.4-.9,1.7-.8,2.8,.3,4.5-.2,5.8-2.6,6.9-1.4,.6-2.5,1.7-2.5,2.4,0,1.7-3.9,4.4-5.5,3.8-.6-.3-1.8,.2-2.5,1.1-1.4,1.7-6.6,2-7.6,.4Zm5.3-4c.5-1.8,1.1-2,4-1.4,3.3,.6,3.4,.5,3.1-2.2-.3-2.4,.1-2.8,2.5-3.1,2.9-.4,3.5-2,1.5-4.1-1.1-1-.8-1.6,1.2-3.2l2.5-1.9-2.3-2c-1.8-1.5-2.1-2.3-1.3-3.8,1.2-2.3,.2-3.9-2.8-4.3-1.4-.3-2.5-1.2-2.7-2.2-.4-2.8-1.2-3.2-4-1.7-2.4,1.3-2.7,1.2-4.3-.9-1.8-2.4-4.1-2.2-4.1,.4,0,2-1.9,2.8-3.5,1.5-1.9-1.6-3.5-.4-3.5,2.6,0,1.9-.5,2.4-2.5,2.4-2.8,0-3.1,1.1-1.3,4,1.1,1.7,1,2.2-.9,3.5-2.4,1.7-2.1,4.5,.4,4.5,1.2,0,1.4,.8,.9,3.5-.7,3.5-.6,3.6,2.1,3.3,2.4-.3,2.8,.1,3.1,2.5,.4,3.1,1.7,3.4,4.3,1.1,1.6-1.4,1.9-1.4,3.4,1,2.1,3.1,3.5,3.3,4.2,.5Z"/><path id="p19ZHh0uSp" class="cls-1" d="M48.61,166.05c-2.7-.5-4.7-.9-4.4-.9,.3-.1,4.6-1.1,9.7-2.1,10.4-2.3,15.6-4.7,21.3-9.8,8-7.2,12-18.1,9.5-25.5-.7-2-3.3-6.5-5.8-10-6.6-9.4-6.6-10,.2-2.8,10.2,10.7,12.5,14.6,12.5,21-.1,15.1-15.4,29.8-31.9,30.5-3.3,.2-8.3,0-11.1-.4Z"/><path id="pVYBYOOcJ" class="cls-1" d="M339.61,409.05c-8.3-3.9-13.5-11.3-13.5-19.4,0-8.5,2.3-12.7,23.4-41.2,12-16.3,12.4-17.1,10.6-18.5-1.1-.8-2.9-4.4-4.1-8-1.1-3.6-2.7-7.2-3.5-8.1s-1.9-4.3-2.5-7.7c-1.1-6-1.1-6.1,2.2-10.1,1.8-2.3,4.1-4.1,5.1-4.1s3.7,1.7,6,3.7c2.4,2,5.3,4.6,6.6,5.7,3.8,3.4,2.6-.3-2.3-6.9-2.5-3.3-4.5-6.5-4.5-7.2,0-2.5,6.3-11.1,8.5-11.7,2.4-.6,9.8,1.6,12.2,3.6,.7,.6,1.7,.7,2.1,.3s-.3-1.4-1.5-2.2c-1.3-.9-2.3-2.2-2.3-2.9,0-1.6-7.5-9.4-9.1-9.4-.5,0-1.7-1.6-2.5-3.6-1.5-3.5-1.4-3.8,2.2-11.2,2.8-5.8,3.8-9.1,3.9-13.3,.1-4.4,.8-6.4,3.4-10.3,1.8-2.6,4.3-5.1,5.5-5.6,1.2-.4,2.8-1.5,3.6-2.5,2.8-3.3,6.7-4.5,15.5-4.5,6.6,0,8.7,.3,9.1,1.5,1.2,3.2,28.4,9.6,28.4,6.7,0-.4,2.5-4.1,5.7-8.2,12.5-16.6,21.1-42.5,23.8-71.5,1.1-11.9,.9-11.7,5.8-11l4.2,.6,3.4-6.3c4.1-7.6,15.8-19.4,25.5-25.8,5.5-3.5,7.7-4.4,10.9-4.3,2.2,.1,4.4,.6,4.8,1s-1.2,8.9-3.7,18.7c-2.4,9.9-4.4,18.7-4.4,19.6,0,5.4,12.6,9.3,23.2,7.1,3.1-.7,6.1-1.7,6.6-2.4s2.9-9.3,5.3-19.2c2.3-9.9,4.4-18.2,4.5-18.4,.8-.9,6.5,2.3,7.9,4.5,2.4,3.7,8.3,22.1,9.9,31,2,11.4,1.5,25.7-1.1,31.5-5.1,11.5-17.9,19.9-44.5,29.3-9.4,3.4-23.6,11.4-30.6,17.3-5.5,4.7-8.8,8.9-31.1,39.8l-7.9,11,4.9,.6c6.2,.9,7.4,1.8,9.9,8.5,1.8,5,1.9,5.8,.5,9-.8,1.9-2.8,4.2-4.6,5.2-1.7,.9-4.4,2.7-5.9,4-1.5,1.2-3.8,2.2-5,2.2s-1.8,.4-1.5,1c.4,.6,.7,3.3,.8,6,0,3.7-.5,5.6-2,7.2-1.1,1.3-2.8,3.8-3.7,5.5-1.9,3.8-6.8,6.7-9.6,5.8-1.7-.5-2-.2-2,2.4,0,1.9-.8,3.8-2.1,4.9-1.1,.9-2.9,3.4-4,5.4-2.2,4.4-4.5,5.8-9.2,5.8-3.4,0-3.4,.1-4,5.3-.5,4.2-1.2,5.7-3.7,7.7-1.7,1.4-3,3-3,3.6,0,2.2-5,5.7-8.1,5.7s-4.9-1.4-8-6.2c-.7-1.2-1.2-1.3-1.5-.4-.3,.7-2.7,4.2-5.2,7.7-2.6,3.6-9,12.7-14.2,20.2-5.2,7.6-11.5,15.9-13.8,18.5-7.8,8.5-17,11-25.7,7Zm15-4c4.6-2.2,8.4-6,14.7-15.1,11.9-17.4,26.3-37.6,27-38.1,.5-.3,0-1.7-1.1-3s-2-1.9-2.1-1.2c0,.6-4.6,7.6-10.2,15.5-5.7,7.9-11.4,16-12.8,18.1-1.4,2-2.8,3.7-3.1,3.7-.4,0-1.2-1.3-1.9-2.9-1.9-4.6-7.8-10-11.9-10.7-1.9-.4-5.2-.2-7.3,.3l-3.8,1,2.3-3.1c12.9-17.1,27.4-37.5,27-38-2-2-5.1,1.3-17.3,18-20.1,27.5-21.8,30.3-23.1,35.9-1.5,6.5-.2,10.9,4.5,15.4,3.3,3.2,9.3,6,13.1,6,1.1,0,3.8-.8,6-1.8Zm13.9-54.6c5.3-7.4,10.3-13.5,10.9-13.5,.7,0,.4-.5-.7-1.1-2.3-1.4-2.2-1.5-13.1,13.5-9.5,13.1-10.4,14.6-8.3,14.6,.8,0,5.8-6.1,11.2-13.5Zm44.2,4.2c.3-1.2,1.9-3.4,3.5-4.9,5.2-4.9,3-10.4-4.3-10.5-4.1-.1-10.7-3.5-17.5-8.9-2.5-2.1-4.8-3.2-5.7-2.8-2.8,1.1-6.3-2.3-9.5-9-3.4-7.3-5.4-8.9-9.7-7.8-2.3,.7-3.2,1.7-4.4,5.5-1.2,3.7-1.9,4.5-3.2,4.1s-1.8,0-1.8,1.3c0,3.4,2.3,5.1,7.6,5.5,3.9,.4,6.7,1.6,12.5,5.3,4.1,2.6,8.1,4.8,8.9,4.8,3.2-.1,7.9,4.8,11,11.4,4.4,9.3,5.4,10.4,9,9.1,1.6-.5,3.2-1.9,3.6-3.1Zm21.2-24.5c.7-2.3,1.8-4,2.2-3.7,1.5,.9,2.1-1.4,1-3.5-.7-1.3-2.1-2-4.1-2-4.8,0-8.7-2.3-18.7-11.1-6.3-5.5-9.2-7.5-9.2-6.3,0,1.6-.1,1.6-1.9,0-1.1-1-2.5-3.2-3.2-4.9-.7-1.8-2.6-5.1-4.2-7.4-3.4-4.8-6.3-5.5-9.1-2.4-1.7,1.9-1.7,2,.6,2.3,1.8,.4,1.2,.7-2.5,1.7-4.7,1.3-8.7,4.9-8.7,7.8,0,.8,1,2.8,2.1,4.5q2.2,3,9.5,2.3c7.2-.7,11.7,.2,8,1.5-1.4,.5,.6,2.2,8.5,7.4,11.6,7.6,16.4,11.7,18.5,15.9,1.3,2.5,2,2.8,5.6,2.5,3.9-.3,4.2-.6,5.6-4.6Zm14.9-15.9c1-1.4,3.1-3.9,4.6-5.4,2.7-2.7,2.7-2.9,1.3-5.7-1-1.9-1.2-3.2-.5-3.9,1.8-1.8-2.9-4.7-7.4-4.6-2.3,.1-6.1-.7-8.7-1.8-3.9-1.8-4.2-2.2-2.5-2.9,1.1-.5,1.5-.9,.9-.9-.6-.1-4.7-3.3-9-7.1-4.3-3.9-8.3-6.9-8.9-6.6-1.2,.4-6.5-2.1-6.5-3.2,0-.4-2-2.8-4.4-5.4-3.9-4.2-4.9-4.8-8.5-4.8-4,0-4.1,.1-4.1,3.4,0,2.3-.9,4.5-2.6,6.6-2.3,2.6-2.5,3.5-1.6,5.5,1,2.1,1.8,2.4,6,2.3,4.1-.1,6.2,.6,11.6,3.7,3.6,2.2,6.6,4.3,6.6,4.8,0,.4-.4,.5-1,.2-.5-.3-1-.4-1-.2s1.8,1.6,4,3.1c2.3,1.5,6,4.4,8.2,6.4,2.3,2,3.8,3.1,3.4,2.5-.4-.7-.3-1.3,.1-1.3,.9,0,3.5,4,6.6,10.3,3.8,7.5,10.1,9.9,13.4,5Zm-86.3-2.7c1-2.1,2.9-4.2,4.2-4.8s2.4-1.5,2.4-1.9c0-1.1-7.1-5.9-8.7-5.9-.7,0-1.6-.7-2.1-1.6-.8-1.4-1.2-1.2-3,1.1-2.6,3.2-2.7,4.4-.8,7,.8,1.1,1.2,2.5,.9,3.2-.6,1.6,2.8,7.4,4.2,7,.5-.2,1.8-2,2.9-4.1Zm15.6-21.6c2.8-2.7,5-5.4,5-6s-1.9-2-4.2-3c-4.9-2.2-7-1.4-10,3.7-1.7,2.8-1.7,3,.9,6.6,1.4,2,2.8,3.7,3,3.7s2.6-2.2,5.3-5Zm86.1-1.5c2.2-1.9,4.6-3.5,5.4-3.5,2.2,0,3.4-4,2.3-7-1.6-4.3-4.9-7-8.5-7-4.8,0-10.9-3.1-17.3-8.7-3-2.7-7.1-5.9-9-7.2l-3.5-2.3,3.3,3.1c4.7,4.5,3.9,4.6-2.5,.2-8-5.4-9.7-7.6-12.3-15.4-1.9-6-4-8.7-6.7-8.7-.5,0-2.4,2.1-4.2,4.7-1.9,2.6-3.6,4.2-3.9,3.6-.9-1.5-4.7,1.6-5.6,4.4-.5,1.6,.2,3.1,2.5,5.8,3.1,3.5,3.5,3.6,7.6,3,3.5-.5,5.1-.2,7.8,1.5,1.9,1.2,3.5,3,3.5,4,0,1.2,4.6,5.2,13,11.5,9.8,7.2,13.8,10.8,16.1,14.6,2.9,4.6,5.2,6.8,7.3,6.9,.5,0,2.6-1.6,4.7-3.5Zm-73.1-24.5c0-1.4,.7-3.6,1.6-4.8,.9-1.3,1.4-2.6,1.1-2.9-1.3-1.2-6.5,1.1-10.1,4.4-3.2,3-3.7,3.9-2.7,5.2,.6,.9,1.9,2.8,2.9,4.3l1.7,2.7,2.7-3.2c1.5-1.8,2.7-4.3,2.8-5.7Zm67.9-2.8c2.4-3.8,16.2-23,25.7-35.8,11-14.9,25.1-24.4,47.6-32.5,23.6-8.5,36-17.4,38.8-28,3.2-11.9,.8-30.4-6.7-50.2-1.4-3.8-2.9-6.5-3.3-6-.4,.4-2.4,7.5-4.4,15.7s-4.1,15.7-4.7,16.7c-1.4,2.7-5.6,4.6-12.5,5.6-6.6,1-8.9,.6-46.1-7.3-9-1.9-16.5-3.4-16.8-3.4s-.4,1.1-.3,2.4c.2,2.2,1,2.5,14.8,5.1,8,1.5,25.6,4.9,39.2,7.6s25.8,4.9,27.2,4.9c3.8,0,5.1-5.2,5.1-20,0-6.9-.4-14.1-.8-16-1.4-6.6,1.1-1.6,3.7,7.1,3.5,12.1,4,19.2,2.1,27.7-2.1,9-5,12.4-9.7,11.6-17.4-3.2-76.1-15.4-81-17-1.4-.4-1.8,0-1.8,1.8,0,4.3-4.9,25.6-7.9,34.7-4.2,12.6-8.7,21.1-17.3,32.7-16.4,21.9-18.8,25.5-18.3,26.4,.4,.6,1.2,1,1.8,1,1.7-.1,26.6-34.7,30.4-42.3,2.9-5.8,6.2-16.7,11-35.9,1.5-5.9,2-6.8,4-6.8,2.8,0,2.8,.2,.2,10.2-1.1,4.4-1.9,8.7-1.7,9.6,.2,1.1,5,2.5,18.1,5.3,9.8,2.1,18.2,4.1,18.7,4.4s1.1-.3,1.4-1.2c4-14,4.8-16.3,6.1-16.3,.7,0,4.2,.7,7.7,1.7,4,1,10.4,1.6,17.5,1.7,6.2,0,10.7,.4,10,.8-5.4,3.7-14.6,8-21.7,10.3-11.2,3.6-29,12.4-36.5,18-6.9,5.2-7.5,5.9-29.2,35.4-12.5,16.9-16.2,22.6-15.2,23.2,2.1,1.3,2.2,1.2,4.8-2.9Zm-77.2-3.6c2.8-2.6,5.4-5.9,6-7.8,.5-1.8,1.5-3.2,2.1-3,1.3,.2,3.7-4.4,4.7-9.1,.3-1.5,1-2.5,1.5-2.2,2.2,1.4-1.5-5.7-4.2-8-4.7-4-7.2-3.1-8.7,3-.5,2.2-.9,3.1-1,2.1-.2-4.1-1.6-.1-1.7,4.7,0,3.9-.9,7-3.7,12.6-4,8.1-4.3,9.1-2.5,10.9s2.1,1.6,7.5-3.2Zm17.3-7.6c-.7-1.3-1-3.8-.7-5.6,.7-4.2,.2-4.3-1.8-.4-1.9,3.8-1.9,6.4,.1,8.5,2.3,2.3,4,.4,2.4-2.5Zm50.5-12.9c14.3-19.9,19.3-27.5,20.1-30.6,.5-2,.4-2.6-.5-2.1-.6,.4-1.1,1.3-1.1,1.9,0,.7-7,10.6-15.4,22.2-13.7,18.6-16.6,23.4-13.6,22.3,.5-.2,5.2-6.3,10.5-13.7Zm-17-2.5c3-4.1,5.5-7.6,5.5-7.8s-1.8-.2-3.9,0c-2.5,.3-4.8-.2-6.4-1.3-1.5-.9-3.4-1.4-4.9-1-1.8,.5-4-.4-8.3-3.3-5.9-3.8-6.2-3.8-13-3.3-7.9,.7-9.4,2.4-5.5,6.6,1.2,1.2,2.7,4.2,3.4,6.6,2,6.7,3.8,7.1,9,2,5-4.9,8.2-5.5,12.4-2.4,1.4,1.1,3,3.5,3.4,5.4,1.2,4.7,1.7,5.9,2.3,5.9,.2,0,3-3.4,6-7.4Zm81.7-96.9c-1.2-1.5-.3-6.5,4.6-25.9,3.5-13.9,3.2-14.3-6.7-7.6-11.4,7.6-23,20.4-24.7,27.2-1.1,4.3,2.5,3,5.1-1.8,3.2-6.3,18.5-21.9,20-20.4,.2,.2-1.1,6.4-3,13.8s-3.5,13.8-3.5,14.2c0,.6,3,1.3,7.4,1.7,1.4,.1,1.6-.2,.8-1.2Z"/><path id="ppDzYergW" class="cls-1" d="M342.21,401.15c-5.4-2.7-7.6-6.4-7.6-12.8,0-4.9,.3-5.7,3.7-9,3.1-3.2,4.4-3.8,9-4.1,6.5-.5,10.6,1.7,13.2,7.2,3.6,7.6,.5,15.9-7.1,19.1-4.3,1.9-7.1,1.8-11.2-.4Zm11.7-4.9c5.2-3.2,5.1-10.5-.1-14.9-2.5-2.1-3.8-2.5-6.5-2-9.5,1.5-11.7,13.6-3.2,17.8,3.6,1.8,5.8,1.6,9.8-.9Z"/><path id="pr4Bm43Y1" class="cls-1" d="M493.61,183.55c-7.7-1.8-13.9-3.6-13.9-4.2,.4-2.9,5.8-24,6.3-24.6,.9-1,32.4,5.6,32.8,6.9,.3,.9-1.1,7.6-4.8,21.6-1.2,4.6-1.5,4.6-20.4,.3Zm20.9-16.7l.6-4.4-1.4,4c-.8,2.2-1.5,4.9-1.5,6-.1,3.7,1.8-.8,2.3-5.6Zm-10-.2c-.9-2.6-2.1-5-2.7-5.4-.7-.4-.8,0-.4,1.2,.4,1,1.2,3.8,1.9,6.2,.6,2.5,1.4,4.1,1.9,3.6s.2-2.9-.7-5.6Zm6.4,1.6c.9-3.2,1-4.9,.2-5.7-.7-.7-1,.2-1,2.8,0,2.2-.4,3.5-1,3.1-.5-.3-1-1.9-1-3.6,0-1.6-.4-2.9-1-2.9-.5,0-1,.4-1,1,0,1.9,2.4,10,3,10,.3,0,1.1-2.1,1.8-4.7Zm-15.2-2.9c-1.4-3.6-1.5-3.7-1.5-1.1-.1,3,2,7.9,2.6,6.1,.2-.5-.3-2.8-1.1-5Zm4.3,.2c-1.3-5.4-3.5-7.7-2.4-2.5,1,4.7,2.5,8.3,3.1,7.7,.3-.3,0-2.6-.7-5.2Zm-12,1.2c1.7-4.4,2.3-8.8,1.2-8.8s-1.7,1.6-2.7,7.3c-.7,4.1,.2,5,1.5,1.5Zm4.1,.3c0-1,.2-3.4,.5-5.2,.4-2.5,.3-2.9-.3-1.4-1.7,3.7-2.4,8.5-1.3,8.5,.6,0,1.1-.8,1.1-1.9Z"/><path id="p1A2mk2EPl" class="cls-1" d="M269.21,356.25c-1.4-.3-4.7-1.7-7.5-3.3-2.8-1.5-8.4-3.5-12.4-4.5-6.8-1.6-7.4-2-11.7-7.4-4.2-5.3-5.5-8-3.7-8.2,3.9-.3,115.5-.3,117.9,.1l3.2,.5-6.3,8.6-6.4,8.6-5.4-.8c-7.8-1.1-16.6-1.1-14.8,0,.8,.6,3.7,1.3,6.5,1.7,2.7,.4,5.3,.9,5.8,1,.4,.1,1.9,.2,3.4,.3,3.7,.1,1.6,2.2-2.8,2.6-5.7,.6-63.2,1.3-65.8,.8Z"/><path id="pl1u1pW4Y" class="cls-1" d="M424.11,355.55c0-.2,.7-1.7,1.5-3.2,.8-1.6,1.5-3.9,1.5-5,0-3.5,6.2-4.9,7.5-1.7,.4,1.3,1.2,.2,3-4.1,4-9.9,.2-9.1,44.8-8.9,57.1,.2,54.9,.2,54.2,1.3-.3,.6-2.5,1-4.7,1-8,0-2.9,1.1,7.8,1.7,6.1,.3,12.1,1.2,13.6,1.9,1.6,.8,5.8,1.4,10.3,1.4,4.1,0,7.5,.4,7.5,.9,0,.6-13.8,.9-34.7,.7-19.1-.1-35.8,0-37,.2-2.1,.4-1.9,.6,1.4,2.3,4.6,2.4,12.2,3.8,23.9,4.4,5,.2,10.3,.9,11.8,1.5,1.5,.5,4,1,5.6,1,3.4,0,5.1,2,1.8,2.1-1.3,0-3.2,.2-4.3,.5-5,1-36.3,.6-40.3-.5-2.4-.7-10.2-1.3-17.2-1.5-11.4-.2-12.5,0-9.8,1.1,1.6,.7,3.7,1.3,4.4,1.3,.8,0,1.4,.5,1.4,1,0,.6-9.7,1-27,1-14.8,0-27-.2-27-.4Z"/><path id="pTr9RvXIy" class="cls-1" d="M96.81,354.35c-.1-.1-4.5-.4-9.7-.5s-12.4-.8-16-1.6c-3.8-.8-8.6-1.1-11.5-.7-2.7,.3-6.1,.7-7.4,.9-1.3,.1-3.8-.1-5.5-.6s-6.2-1.2-10.1-1.8c-3.8-.5-9.5-1.6-12.5-2.6-3-.9-7.3-1.8-9.5-2s-4.4-.4-4.9-.4c-.5-.1-.6-.4-.3-.7,1.3-1.4,44-1.3,50.4,0,4.1,.9,7.7,1.1,10.5,.5,2.4-.4,7.9-.8,12.3-.9,10.7-.1,7.8-1.8-4.4-2.5-5-.3-12.1-1.2-15.8-2-3.8-.8-8-1.5-9.5-1.5-4,0-5.8-1-5.8-3.1,0-1.5,.8-1.9,3.8-2,27.8-.5,96.1-.4,97.3,.2,.9,.5,2.7,3.3,3.9,6.4,2,4.9,4,7.2,4,4.5,0-.5,1.4-.8,3-.7,2.5,.2,3.2,.8,3.9,3.2,.4,1.7,.6,3.3,.5,3.6-.6,1-16.2,3-21.4,2.7-2.5-.1-8.3,.1-13,.6-8.5,.7-31.8,1.5-32.3,1Z"/><path id="pVvmgf0E4" class="cls-1" d="M1035.71,349.05c-.1-.3,1.4-9.6,3.3-20.6l3.6-20,3.4-.3c1.8-.2,3.8,.1,4.3,.6,.7,.7,2.2,.5,4.3-.4,4.3-1.8,9-.8,11.5,2.3,3.5,4.5,1,20-4,24.8-3.5,3.3-9.1,4.3-12.4,2.1-2.9-1.9-3.2-1.6-4.1,4.6-.4,2.6-1.2,5.1-1.9,5.6-1.3,1.1-7.6,2.1-8,1.3Zm20.2-19.3c1.6-2.1,3.4-9.9,2.8-12.4-.5-1.8-1.3-2.4-3.5-2.4-1.6,0-3.4,.6-4,1.4-1.7,2.1-3.1,10.8-2,12.8,1.1,2.1,5.2,2.4,6.7,.6Z"/><path id="p17IgxLvMk" class="cls-1" d="M779.91,337.35c-3.6-1.9-4.8-4.3-4.8-9.5,0-3.7,.6-4.8,4.3-8.4,4.3-4.1,4.3-4.2,2.9-7.2-3.2-6.7,1-13.9,8.9-15.3,7.4-1.4,13.9,1.9,13.9,6.9,0,3.3-3.2,8.5-6.5,10.7-3.1,2-3.1,3.1-.3,6.1l2.2,2.3,2.1-3.7c1.6-3,2.7-3.9,5.3-4.1,4.2-.4,4.2,1.6,.2,9.3l-3,5.8,3.7,4.5,3.7,4.5-5.8-.5c-3.2-.3-6.1-1-6.6-1.7-.6-1-1.9-.9-6,.3-6.6,2-10.7,2-14.2,0Zm13.7-8c0-2.1-5.5-7.6-7-7-1.8,.7-3.4,4.5-2.7,6.4,1.1,2.9,9.7,3.4,9.7,.6Zm.9-20.3c2.3-2.5,1.7-5.5-1.1-5.9-3-.4-4.8,3-3.1,5.8,1.6,2.5,2,2.5,4.2,.1Z"/><path id="pTJFnkAMo" class="cls-1" d="M825.31,338.25c-1.3-.3-2.2-.8-2-1.1,.2-.4,2.5-4.7,5.2-9.7,2.7-4.9,7.5-13.7,10.6-19.5l5.7-10.5h9.7l1.7,8.5c.9,4.7,2.5,12.9,3.5,18.2,.9,5.4,2.1,9.5,2.6,9.2s.6,.6,.3,1.9c-.5,1.9-.2,2.6,1.2,3,2.8,.7-5,.8-8.6,.1-2.6-.6-3.1-1.1-3.1-3.6,0-3.3-.3-3.5-8.8-4.1l-6.3-.5-1.9,3.8c-1.8,3.6-1.9,3.9-.2,4.3,2.2,.6-6.5,.6-9.6,0Zm24.3-21.5c-.4-3.5-1-6.7-1.3-7.2-.5-.8-7,10.8-7.2,12.7,0,.4,2.1,.7,4.6,.7h4.6l-.7-6.2Z"/><path id="pI4Q3qEl9" class="cls-1" d="M870.41,336.75c-3.2-3.6-3.5-6.1-1.8-15.5,2.5-14.3,2-13.3,6.4-13.3,3.6,0,7.5,2.4,5.2,3.2-1.4,.4-3.5,14-2.7,17.2,.5,1.9,1.3,2.6,3,2.6,3.4,0,4.5-1.8,6.1-10.6,2.5-13.2,2-12.4,6.5-12.4,4.8,0,4.7-.7,1.8,16.3-1.9,11.1-2,13-.7,13.8,1,.7-.2,.9-4,.6-2.9-.2-5.6-1-6-1.6-.6-.9-1.5-.8-3.7,.4-4.1,2.1-7.7,1.9-10.1-.7Z"/><path id="pfjaYJCda" class="cls-1" d="M905.91,335.85c-2.9-2.9-3-3.3-2.5-8.7,.4-3.1,.9-7.2,1.3-8.9,.5-2.6,.3-3.3-.9-3.3-2.2,0-3-1.7-2.3-4.6,.5-1.7,1.3-2.4,3.1-2.4,2,0,2.5-.5,2.5-2.4,0-2.8,1.5-4.1,5.6-4.9,3.9-.7,4.4-.3,3.4,3.3-.9,3.2,.1,4,5.1,4,3.2,0,3.4,.6,1.9,4.4-.8,2.2-1.6,2.6-4.9,2.6-3.9,0-4,.1-4.6,3.8-.4,2-.9,5-1.2,6.5-.6,3.6,1.2,5.7,4.9,5.7,2.8,0,3,.2,2.3,2.7-1,4.2-2.4,5.3-6.7,5.3-3.1,0-4.6-.7-7-3.1Z"/><path id="pR2WiehDx" class="cls-1" d="M930.01,337.45c-3.7-2-5.3-6.5-4.6-13.4,.8-9.8,4.4-14.3,12.4-16.2,5.1-1.1,10.7,.5,13.4,3.9,1.8,2.3,2,3.6,1.6,8.3-.8,8.9-3.8,14.6-8.9,16.9s-10.3,2.5-13.9,.5Zm11.5-8.7c1.9-2.9,3-9,2.1-11.7-.8-2.7-6-2.9-7.4-.3-1.5,2.8-2.4,9-1.7,11.7,.8,3.3,5,3.4,7,.3Z"/><path id="p12JmGLaeg" class="cls-1" d="M970.91,338.25c-1-.2-1.8-1-1.8-1.7,0-1.3,5.6-33.2,6.5-37.3,.5-2.2,1-2.3,10.8-2.3,11,0,15.3,1.5,17.7,6.1,2.7,4.9-2.1,17.9-6.6,17.9-.7,0-1.4,.5-1.4,1.2,0,1.6,5,14,6.2,15.6,.8,.9,0,1.2-3.4,1.2-5.9,0-7.3-1.3-10-9-2-5.6-2.7-6.5-5-6.8-2.4-.3-2.8,.1-3.6,3.5-1.8,7.1-2.1,11.2-.9,11.7,1.5,.6-6.2,.5-8.5-.1Zm22.7-24.3c2-1.6,2.4-5.9,.8-7.6-.8-.8-3.3-1.4-5.9-1.4-4.7,0-4.3-.5-5.9,7.4-.2,1.2-.2,2.5,.1,2.8,.9,.9,9.5,0,10.9-1.2Z"/><path id="p19CENVHw" class="cls-1" d="M1014.61,337.85c-6.9-4-8.7-9.4-6.1-18.3,2.7-9.1,10.6-13.8,19.3-11.4,3.7,1,7.3,5.1,7.3,8.4,0,1.2,.6,2.5,1.3,2.7,1,.4,1,.6,0,.6-.7,.1-1.3,.7-1.3,1.5s-.7,2.2-1.6,3.1c-1.4,1.3-3,1.5-9.5,1-7.4-.6-7.9-.5-7.9,1.3,0,3.3,2.5,4.4,9,4l6.1-.3-.7,3c-.3,1.7-1,3.4-1.4,3.8-1.3,1.4-12.3,1.9-14.5,.6Zm12.5-19.9c0-1.8-2.6-4-4.9-4-1.4,0-5.1,3.7-5.1,5,0,.6,2.3,1,5,1,4.3,0,5-.3,5-2Z"/><path id="phnZoJJe0" class="cls-1" d="M1073.81,336.95c-2.1-1.6-2.7-3-2.7-5.8,0-7.7,4.3-11,14.3-11.1,4.1-.1,4.8-.4,4.5-1.8-.2-1-1.3-1.9-2.6-2.1-1.2-.2-2-.8-1.7-1.3,.5-.8-1.8-.6-7.8,.6-1.6,.3-1.7-.1-1.2-2.8,.4-1.8,1-3.6,1.4-4s3.7-.8,7.3-.9c7.3-.1,12.5,2.1,13.4,5.8,.3,1.1-.4,6.8-1.4,12.5-1.4,7.3-1.7,10.8-1,11.7,.8,1-.2,1.2-5,1-3.9-.2-5.7-.7-5.1-1.2,1.7-1.8,.9-2.9-1-1.2-3.1,2.8-8.2,3.1-11.4,.6Zm12.4-6c2.3-1.3,2.5-4.8,.4-5.6-2.5-1-6.3,.5-7,2.7-1.1,3.4,2.6,5,6.6,2.9Z"/><path id="pfHR1tSoK" class="cls-1" d="M1103.51,337.95l-2.1-.8,2.6-14.4,2.6-14.3,4.3-.3c3.5-.3,4.2,0,4.2,1.5,0,1.6-3.2,20-4.5,26-.4,1.5,0,2.3,1.2,2.6,1,.3,0,.5-2.2,.5s-4.9-.3-6.1-.8Z"/><path id="pgtdrqoly" class="cls-1" d="M1119.01,337.95c-1.4-.8-1.3-2.3,1-15.2l2.6-14.3,3.3-.3c1.8-.2,4,.2,4.8,.9,.9,.8,1.8,.8,2.7,.2,1.9-1.6,6.1-2.3,7.5-1.4,.8,.4,1.6,2.6,1.9,4.9,.4,3.3,.3,4-1,3.8-.9-.1-2-.5-2.3-.9-1.7-1.6-6.3-.6-8.2,1.8-2.1,2.6-4.9,17.3-3.8,20,.4,1.2-.2,1.5-3.2,1.5-2,0-4.4-.5-5.3-1Z"/><path id="phNPPzFOh" class="cls-1" d="M309.11,306.85c-2-.6-2.1-.7-.5-.8,2.2-.1,9.7-2.6,12.9-4.3,1.2-.6,6.7-5.6,12.3-11l10.1-10,8.2-.1c7.7-.2,8.1-.1,7.5,1.8-.4,1.1-.7,2.6-.7,3.3-.1,.7-1.3,1.5-2.7,1.8-3.1,.8-8.7,5.8-10.7,9.7-.9,1.7-1.2,4-.9,6.1,.5,2.3,.3,3.5-.7,3.8-2,.8-31.9,.5-34.8-.3Z"/><path id="pI1ANadVb" class="cls-1" d="M46.91,306.45c-.2-.1-4.5-.5-9.6-.9-5.1-.3-9.8-.8-10.3-1.2-.5-.3-5-.7-9.9-.8-6.8-.2-9.5-.7-11.7-2.2l-2.8-1.9,4.5-.6c2.5-.3,16-.6,29.9-.7,14-.2,25.6-.4,25.8-.6,1.1-1.1-17.8-2.6-34.5-2.8-10.6-.1-19.5-.5-19.8-1-.3-.4,.3-.8,1.3-.8,1.1,0,3.4-1.6,5.3-3.5,2.6-2.6,4.1-3.4,6.7-3.3,2,.1,4.1-.6,5.4-1.8,1.9-1.7,4.1-1.9,26.3-2.2,14.6-.2,25.1,.1,26.6,.7,2.3,.9,2.3,1-1.3,1-2.1,.1-3.6,.4-3.4,.9,.3,.4,8.4,.7,18.1,.6h17.5l1.9,2.6c1.1,1.4,4.7,4.4,8.1,6.5,5.9,3.9,6.1,4.1,5.8,8l-.2,4-39.7,.1c-21.8,.1-39.8,.1-40-.1Z"/><path id="pzukxAyns" class="cls-1" d="M464.11,302.25c0-1.3,1.1-2.9,2.4-3.9,2.7-1.7,8.5-1.4,18.2,1.2,3,.8,9.9,1.4,15.2,1.4,5.8,0,9.1,.4,8.2,.9-3.5,1.9-15.5,3.1-29.2,2.9-14.6-.3-14.8-.3-14.8-2.5Z"/><path id="p1B7kwx6iz" class="cls-1" d="M1109.01,303.95c-1.1-.6-1.4-1.9-1.1-4,.4-2.8,.7-3,4.9-3h4.4l-.3,4c-.2,3.7-.4,4-3.2,4-1.7,0-3.8-.5-4.7-1Z"/><path id="p9Dxq5VOC" class="cls-1" d="M246.11,299.45c-1.4-4.2-8.3-11.5-10.9-11.5-1.2,0-2.4-.8-2.7-1.7-1.3-3.9-1.5-4.8-1.5-5.2,.1-.2,3.8-.4,8.3-.5,9.6-.1,12,1.1,20.9,11.4,3,3.4,7.2,7.2,9.4,8.6l4,2.4-13.2-.2-13.3-.3-1-3Z"/><path id="pki4GAhvF" class="cls-1" d="M284.61,298.85c-6-.4-11.2-.7-11.4-.8-.2,0-5.3-5-11.5-10.9-6.1-5.9-15.3-14.3-20.5-18.7-11.4-9.6-13.4-13.3-13.1-23.9,.1-3.9,.3-8.7,.3-10.6,.1-3.7-.7-12.6-1.9-19.7-.6-3.7-1.1-4.5-4.9-6.3-5.7-2.8-12-9.3-15.2-15.9-2.6-5.2-2.6-5.6-1.4-12,2.8-14.5,2.7-15.4-5.3-28-9.1-14.3-12.5-43.7-8-69.8C199.51,36.45,226.01,9.25,270.61,1.45c11.4-2,38-1.9,49.1,.1,20.4,3.8,36.8,12.5,50,26.7,22.3,23.9,30.7,60.7,23,101.2-1.5,8.3-4.1,18.3-5.7,22.3-3.4,8.5-3.5,9.9-1.3,17.2,2.3,7.7,2,10.9-1.6,18.1-3.8,7.8-8.1,12.4-14,15.3l-4.5,2.1-1.2,8.5c-1.8,12.3-2.2,21.9-1.1,28.3,.8,4.6,.7,6.7-.8,11.4-1.6,5.1-2.9,6.8-10.8,14.3-5,4.7-14.3,13.5-20.7,19.7s-12.9,11.7-14.4,12.3c-2.9,1.1-11.8,1.1-32-.1Zm31.7-5c1.3-.6,8.6-7.3,16.4-14.8,7.7-7.5,16-15.4,18.5-17.7,2.5-2.2,4.8-4.9,5.1-6,.3-1.2-3,1.4-8.1,6.3-11.1,10.9-14.6,12.8-5.6,3.1,7.7-8.3,13.5-18.4,13.5-23.8,0-1.9,.5-5.4,1-7.7,.6-2.4,1.5-7.5,2-11.5,.6-4,1.3-8.2,1.6-9.3,.4-1.1,.3-1.7-.1-1.3-.3,.3-1.5,4.6-2.6,9.4-1.3,6-3.1,10.9-5.8,15.4-4.7,7.9-8.6,11.9-5.3,5.5,3.1-6.2,8.1-24.2,6.4-23.1-.5,.3-1.4,3-2.1,6.1-1,4.4-2.9,7.7-9,15.8-4.2,5.6-9.2,11.8-11,13.7-3.1,3.2-3.4,3.3-4.6,1.7-1.2-1.7-1.4-1.6-2,1.2-.3,1.6-1.8,4.2-3.2,5.7-2.3,2.5-2.7,2.6-3.8,1.1-1.1-1.6-1.4-1.5-2.9,.8-2.1,3.3-3.1,3.2-4.8-.5-.7-1.6-1.5-3-1.8-3s-1.1,1.4-1.7,3c-1.4,3.7-3.6,3.8-5.3,.3-.9-2-1.4-2.4-1.8-1.3-.6,1.9-3.3,5-4.3,5-.5,0-1.7-1.7-2.8-3.7-1.1-2.1-2-3.1-2.1-2.2,0,.9-.9,2.7-1.9,4l-2,2.4-2-4.5c-1.9-4.3-2-4.3-2.6-1.7-1,3.9-2.9,5.1-4.9,3.2-.9-.9-1.6-2.1-1.6-2.7s-.8-.3-1.9,.6c-1.8,1.6-2,1.6-4-1-1.2-1.5-2.4-3.8-2.7-5.1-.6-2.3-2.4-3.3-2.4-1.3s-2.7,.9-3.8-1.5c-.6-1.4-1.5-2.5-2-2.5s-2.4-2.1-4.2-4.7c-1.9-2.7-4.6-6.2-6.1-8-3.3-3.8-6.6-11-8.1-17.5-.6-2.6-1.5-4.5-1.8-4.3-1.2,.7,1.6,13.5,4.4,20.4,1.7,4.1,2,5.9,1.1,5.1-2.2-1.8-5.5-7.5-8.1-13.9-2.8-6.6-3-4.8-1,8,1.5,9.8,4.8,16.3,13.5,26.2,2.8,3.2,5.1,6,5.1,6.2,0,1.1-14.6-11-16.7-13.8-1.3-1.7-2.3-2.7-2.3-2.1,0,2,3.3,5.5,12.7,13.5,5.4,4.5,13.9,12.2,18.8,16.9,11.5,11.1,14.5,12.1,27.3,9.6,4.8-1,9.5-1.9,10.4-2.1,1-.2,2.1,.1,2.4,.6s.1,.9-.3,.9c-.5,0-1.8,.6-2.8,1.4-1.7,1.2-1.1,1.3,4.8,1,3.7-.2,7.7-.8,8.9-1.5Zm-17.9-38.8c.2-4.5,.2-4.6-3.2-4.9l-3.4-.3,.6,4.8c.3,2.6,1.1,6.2,1.7,7.8l1.2,3,1.5-2.9c.8-1.6,1.6-4.9,1.6-7.5Zm-17.4-2.3c.1-3.6-1.7-5.8-4.8-5.8-1.7,0-1.3,9.6,.5,13.8l1.7,3.7,1.3-4c.7-2.2,1.3-5.7,1.3-7.7Zm25.4,3.7c.8-3.3,1.3-6.3,1-6.7-.2-.5-1.7-.8-3.4-.8-2.6,0-2.9,.3-2.9,3.1,0,4.3,2.1,12.2,3,11.2,.4-.4,1.4-3.5,2.3-6.8Zm9.1-1.3c.4-4.1-.2-8.2-1.3-8.2-.4,0-1.5,.6-2.5,1.3-2.1,1.6-2.4,6.8-.6,12.3l1.3,3.7,1.4-2.7c.8-1.4,1.5-4.3,1.7-6.4Zm-27,5.1c2-9.8,1.6-11.3-2.6-11.3-2.9,0-3,.2-2.4,3.2,2.1,10.6,3.9,13.4,5,8.1Zm-16.3-2.5c0-1.8,.1-5.1,.2-7.2,.2-3.1-.3-4.2-2.1-5.4-3.2-2.1-4.2-.4-3.1,5.6,1.7,9.2,4.8,13.6,5,7Zm50.4-3c.8-2.9,1.5-6.4,1.5-7.9,0-2.7-.1-2.7-3-1.8-2.9,1.1-3,1.2-3,7.8,0,9.9,1.9,10.7,4.5,1.9Zm8.4-10.5c.1-1.4-.5-2.3-1.3-2.3-3,0-4.1,4.7-2.3,9.5l1.1,3,1.2-4c.7-2.2,1.3-5,1.3-6.2Zm-66.9,2.5c0-2.6-.6-4-1.9-4.7-1-.6-2.1-.8-2.4-.5-.4,.5,.8,7.2,1.9,10.4,.9,2.4,2.4-.9,2.4-5.2Zm72.1-4.5c.2-1.2,.1-2.2-.3-2.3h-1.8c-.5,0-1,1.9-1,4.2,0,3.9,.1,4.1,1.4,2.2,.8-1.1,1.6-2.9,1.7-4.1Zm-78.7,2c-1.1-5.3-1.5-6-2.4-3.8-.8,2.1,.7,6.5,2.2,6.5,.5,0,.6-1.2,.2-2.7Zm30.4,.3c.5-2.2-2.8-12.6-3.9-12.6-1.4,0-3.2,12.3-2.1,14.3,.8,1.6,5.7,.2,6-1.7Zm11.4-1.4c-.5-5.1-2.6-11.5-3.9-11.9-1.3-.5-3.2,5.7-3.8,11.9l-.4,3.9,4.2-.3c4.1-.3,4.2-.4,3.9-3.6Zm9.7-.9c0-2.7-.6-6.3-1.3-8.2l-1.2-3.4-1.3,3.1c-1.8,4.4-3,10.2-2.4,11.8,.3,.8,1.8,1.4,3.4,1.4,2.8,0,2.9-.2,2.8-4.7Zm-31-7.6l-1.2-6-1.7,3.4c-1,1.9-2,5-2.3,7-.5,3.4-.3,3.7,2.6,4.6,2.8,.8,3.2,.6,3.5-1.1,.2-1.1-.2-4.7-.9-7.9Zm39.9,5.7c.3-3.4-2.6-11.1-3.7-9.8-1.1,1.2-3,11.5-2.4,13,.3,.8,1.4,.9,3.1,.5,2.1-.6,2.8-1.4,3-3.7Zm-47.8-1c0-3.4-2.1-10.4-3.1-10.4-.9,0-2.9,6.4-2.9,9.3,0,1.5,2.8,3.4,5.3,3.6,.4,.1,.7-1.1,.7-2.5Zm54.5,1.4c2.2-1,2.5-1.5,1.9-4.7-.4-2-1.2-4.6-1.9-5.9-1.1-2.3-1.2-2.3-2.2,1.5-3,10.5-2.8,11.4,2.2,9.1Zm-62.4-6.8c.7-8.2-1.8-9.3-3.7-1.7-1,4.1-1,4.8,.5,5.6,1.8,1.1,2.8-.1,3.2-3.9Zm69.8,4.1c1.1-.7,1.1-1.7,.1-6-.6-2.8-1.6-5.3-2-5.6-1.2-.7-2,4.8-1.3,8.9,.6,3.8,1,4.1,3.2,2.7Zm-75.9-6c1-3.8,.6-7.1-1-7.1-.9,0-2.2,8.9-1.4,10.1,.9,1.5,1.3,1,2.4-3Zm81.4,0c-1.1-5.8-1.6-7.1-2.6-7.1-1.1,0-.5,8.1,.8,10.2,.9,1.4,2.3-.9,1.8-3.1Zm-42.4-4.1c1,0,2.8,1.2,3.9,2.8l2,2.7,2.4-2.9c2-2.5,2.6-2.7,4.5-1.7,1.7,.9,2.3,.8,3.6-1,1-1.5,2-1.9,3.5-1.4,1.2,.3,2.1,1.1,2.1,1.6,0,1.9,2.7,.8,3.8-1.6,.9-2,1.7-2.4,3.6-1.9,1.6,.4,2.5,.1,3-1.1,.4-1.2,1.3-1.5,3-1.1,1.6,.4,2.6,.1,3-1s1.3-1.3,2.7-.9c2.1,.7,2.2,.6,1.5-5.9-.5-5-.3-7.3,.9-9.5,1.4-2.8,4.8-4.8,7-4.2,.6,.1,.5-.3-.1-.9-.9-.8-2-.8-4.7,.4-3.9,1.6-6.8,6-6.9,10.7-.1,2-.4,2.6-.9,1.7-2.6-4,.9-12.3,6.2-15,3.2-1.6,3.3-1.7,.9-1.9-7.5-.4-10.4,1-15.1,7.4-2.4,3.2-3,3.6-2.4,1.7,.3-1.4,1.9-4.3,3.4-6.5,3.6-5.4,8.3-6.9,17.6-5.9,13.5,1.6,17.6,1.1,22.8-2.4,5.5-3.9,9-8.2,10.7-13.7l1.3-4,.8,2.8c1.1,4.1-1.3,10.9-6.1,17.3-2.4,3.2-3.4,5.2-2.3,4.6,4.7-2.6,10.7-11.6,11.9-17.8,.3-1.8-.2-5.4-1.1-8.5-.9-3-2-10.3-2.5-16.4-.5-6-2-15.9-3.4-21.8s-2.7-14.5-2.9-19c-.4-9.3,1.4-26.8,2.6-25.1,.4,.7,.9,7,1.2,14,.4,10.6,.9,13.6,2.7,17.3,4.2,8.4,7.3,5.9,9.8-7.9,3.2-17.7-.2-41.5-8.6-59.9-2.9-6.3-4.3-8.2-7.4-10-2.1-1.1-4.4-2.1-5.2-2.1-1.5,0-3.7,3.9-3.9,6.8,0,1-.7,.3-1.5-1.6-1.8-4.2-7.9-7.1-14.9-7.2-2.7-.1-7-.5-9.4-.9-5.5-1.1-6.7-.7-7.6,2.6-.4,1.6-1.7,2.9-3.7,3.7-3,1.1-3,1.2-2.4,6.6,.4,3,1.1,5.9,1.6,6.4,.6,.6,1,2.2,1,3.7s.5,4.9,1.1,7.6c1,4.4,.9,5.4-1,9.1-1.2,2.4-2.7,4.2-3.4,4.1s-2.3,.1-3.7,.5c-1.5,.4-4.3,.1-6.9-.9-2.4-.8-5.5-1.5-7-1.6-2.4,0-2.4-.1-.5-.9,1.2-.5,4-.3,6.9,.5,5.9,1.4,11,.2,13.2-3.2,1.3-2,1.3-3-.2-9.5-.9-4-2.7-8.9-3.9-10.9-1.3-1.9-2.9-6.2-3.6-9.4-2.7-13.2-8.2-18.8-17.3-17.8-3.9,.4-4.1,.3-2.3-1.1,1.1-.9,2.5-1.6,3.2-1.6,3.9,0,2-5.1-2.8-7.6-2.4-1.2-3.6-1.4-5.5-.5-3.7,1.7-3.7,1.3-.4-1.5,4.2-3.5,4.1-6.8-.1-9.5-2.8-1.7-4.4-1.9-10.5-1.5-17.3,1.2-38.5,8.5-52,17.7-6.2,4.3-15.2,13.6-15.9,16.5-.4,1.7,.3,3.4,2.5,6.1,1.7,2.1,3.1,4.4,3.1,5.1,0,2.5,4.1,7.2,8,9.2,3,1.5,4.9,1.8,9,1.3,3.9-.4,5.1-.3,4.6,.5-.4,.7-1.3,1.2-2.1,1.2-1.6,0-7.7,3.1-8.7,4.5-.4,.6-.8,3-.8,5.5,0,4.2-.5,5-5,9.5-5.4,5.4-7.1,4.2-2-1.5,2-2.2,3.1-4.8,3.5-7.9,.3-2.5,.8-5.4,1-6.3,.2-1-1.5-3.9-3.9-6.5-2.3-2.7-5.3-6.5-6.6-8.6-2.1-3.1-2.9-3.7-5-3.2-3.8,.9-7.2,5.6-10.3,14.2-4.2,12.1-6.8,26.5-7.1,39.3-.3,14.5,.6,19.2,4.6,22.5,3.8,3.2,5.2,3.2,6.7-.2,1.7-3.7,4.1-17.6,4.1-23.5,0-2.6,.5-7.1,1.2-10l1.2-5.3,.8,6c2.4,18.6,1,32.3-4.8,44.8-3.1,6.7-3.6,8.5-3,12.4,.3,2.5,1.9,6.5,3.5,8.9,4.3,6.6,4.9,13.5,1.7,20.4-3,6.4-3.1,7.8-1.1,12.6,2.5,6.1,7.6,11.4,12.3,12.8,3.5,1.1,2.6-1.1-1.5-3.7-4.5-2.8-8.3-9.5-8.3-14.3,0-4.2,1.6-4.5,2.5-.4,.4,1.7,2.4,4.5,4.8,6.5,5.2,4.5,9.5,4.6,17.7,.5,5.1-2.6,6.4-2.9,9.7-2.1l3.8,.9-4.1,.1c-2.6,.1-4.7,.8-5.8,2q-1.6,1.8,3.7,.3c7.3-2,13.6-1,16.8,2.6,1.8,2,1.9,2.3,.3,.9-3-2.5-5.3-2.2-2.6,.3,2.4,2.3,4.5,6.8,5.5,11.8,.4,2.1,.3,3.1-.3,2.7-.6-.3-1-1.4-1-2.4,0-2.5-5.3-10.2-8.1-11.7-1.3-.7-3.3-1.3-4.4-1.3-1.9,0-1.8,.1,.2,.9,3.1,1.2,6.9,7.7,7.7,12.8,.3,2.3,.4,4.2,.2,4.2-.3,0-1.2-2.3-2.1-5.1-1.8-5.3-5.8-8.9-10-8.9-1.6,0-1.5,.3,1,1.8,5.2,3.2,5.7,4.5,5.2,12.6s-.2,9.2,2.1,7.4c1.1-1,1.7-.9,2.8,.6s1.6,1.7,2.8,.7,1.7-.8,2.6,.8c.8,1.6,1.7,2,3.5,1.5,2-.5,2.7-.1,3.5,2,1.1,3.1,1.5,3.2,4.7,.6,2.6-2.1,4.3-1.9,4.3,.5,0,2.1,1.7,2.7,4,1.5,1.8-1,2.4-.7,4.2,1.6l2.1,2.7,2-2.7c1-1.4,2.7-2.6,3.7-2.6Zm29.9-186.1c1.8-1.1,3.8-3.4,4.5-5,1-2.9,1.4-3,5.1-2.5,2.2,.3,7.9,1,12.7,1.5,4.7,.5,10.3,1.4,12.3,2.1,4.3,1.4,5.3,.7,6.1-4.2,.6-3.2,.2-3.8-5.7-9.2-11.9-10.8-33.1-18.9-49.7-19-7.2-.1-8.6,.2-9.8,1.8-2.4,3.3-1.8,7.4,1.4,9.4,4.1,2.5,14.6,14.2,16,17.7,.6,1.7,1.4,4.5,1.7,6.3,.8,3.8,1,3.8,5.4,1.1Z"/><path id="pd8rpeBoP" class="cls-1" d="M281.11,275.95c0-.5-1.8-1.4-4.1-2-2.2-.6-5.7-2.7-7.7-4.6-3.8-3.7-2.9-3.6,2.1,0,2.6,1.9,4.1,2.1,17.5,1.9,9.7-.1,16.4,.3,19.9,1.2,5.1,1.3,9.5,.8,12.8-1.5,1.5-1,4.5-2,4.5-1.5,0,.3-1.9,1.8-4.2,3.5-4.5,3.3-10.9,4-14.1,1.6-2.3-1.8-18.4-1.2-23.2,.8-1.9,.8-3.5,1.1-3.5,.6Z"/><path id="pC500AT0x" class="cls-1" d="M298.61,215.95c1.8-.8,1.6-1-1.6-1.4-.6,0-1.2-2.7-1.4-6-.5-8.2-2.5-9.8-2.6-2,0,5-.2,5.5-1,3.4-.6-1.4-.8-4.5-.5-7l.6-4.5-1.5,4.5c-.8,2.5-1.5,5.2-1.5,6.1,0,2.5-3.9,6.9-6,6.9-2.6,0-5.8-3.7-7.1-8.1-1.1-3.5-.8-4.2,6.6-17.7,4.2-7.7,8.3-14.3,9.1-14.6,2.4-.9,4.2,.4,5.9,4.2,.9,2,3.6,7.6,6,12.3,5.9,11.8,6.2,13.5,2.9,18.6-2.6,3.9-6,6.4-8.7,6.2-.7,0-.3-.4,.8-.9Z"/><path id="p12Mxiwdsy" class="cls-1" d="M274.71,189.45c.4-1.1,2.5-4.6,4.6-7.7,3.8-5.7,5-10.8,2.5-10.8-.7,0-3.1,1.8-5.2,4-2.7,2.7-4.8,4-6.6,4-3.8,0-4.5-1.6-1.1-2.4,3.2-.6,3.9-1.1,7.2-5l2.5-2.9-4.6,3.2c-2.5,1.7-6.3,3.4-8.5,3.7l-3.9,.5,3.9-1.5c2.2-.8,4.9-2.5,6-3.7l2.1-2.2-3,1.9c-3.8,2.4-12.4,2.3-24.7-.3-9.4-2-10.8-1.4-2.8,1.2,2.8,.9,5,1.8,5,2,0,1.2-10.4-1.1-15.5-3.4-6.7-3.1-8.3-4.6-11.6-11.1-2.9-5.5-3.1-15.5-.5-19.5,2-3.1,.8-3.2-3-.3-2.8,2.2-2.6,1,.4-2.5,2-2.3,1-3.2-2-1.6q-2.3,1.2-.4-.9c2.7-3,7.8-4.3,12.4-3,5.2,1.4,10.7,4.3,29.8,15.8,19,11.4,22.6,12.8,27.9,10.6,6.6-2.8,7.1-8.6,1.2-15.2l-3.2-3.7,4.2,2.9c4.8,3.3,5.8,5.2,5.4,10.9-.2,3-1.2,5-4.2,8.2-3.4,3.7-3.8,4.5-2.9,6.8,2.1,5.5,1.2,8.2-4.7,15.2-7.6,9.1-7.5,9.1-6.7,6.8Z"/><path id="p5sdyUpyp" class="cls-1" d="M318.61,179.25c-2.2-.9-5.7-2.9-7.9-4.6-3.6-2.8-3.7-2.8-2.6-.6,.9,1.7-.1,1.1-3.7-2.1-3.3-2.9-4.9-5.1-4.6-6.2,.2-1-.5-3-1.7-4.6-4.1-5.6-3.2-21,1.6-28.5,6.4-9.9,36.5-27.9,48.7-29.2,3.3-.4,5.7-.3,5.7,.3,0,.5-2.1,1.2-4.7,1.5-8.6,.9-28.9,12.9-41.1,24.2-7.4,6.8-9.2,10.7-9.2,19.2,0,6.3,.9,8.1,4.2,8.5,7.5,1.1,10.4-.4,20.6-10.9,6.1-6.3,13.2-12.4,19-16.2l9.3-6.3,8.6,2.4c9.1,2.5,11.4,4.4,12.6,10.3,.6,2.6,.5,2.8-.6,1.1-2.3-3.6-5.9-7.6-6.7-7.6-.5,0,.2,1.9,1.5,4.3,3.5,6.1,5.2,17.2,3.7,23.5-1.2,5.3-7,16-9.9,18.3-1.2,1-.9,0,1-3.3,3.4-5.8,3.5-7.3,.2-3.1-3.1,3.9-10.4,6.8-21.1,8.2-12.1,1.7-21.2-.6-29.3-7.4-1.7-1.5-3.1-2.3-3.1-1.8,0,1.6,6.4,7.1,11.4,9.7,5.4,2.9,4.3,3.4-1.9,.9Z"/><path id="pnC9oOQWV" class="cls-1" d="M273.11,131.85c-12.3-7.6-20.2-11.4-32.5-15.5-9.6-3.2-9.8-3.3-5.5-3.4,9.6-.1,22.3,4.6,34.5,12.6,7.5,4.9,16.1,12.5,13.9,12.3-.5,0-5.2-2.7-10.4-6Z"/><path id="p1CnzXSKVN" class="cls-1" d="M524.91,295.45c-.3-.3-12.1-.6-26.3-.6h-25.8l3.6-3.7c2-2.1,3.9-5.2,4.3-7,.7-3.5,1.3-3.9,3.3-1.9,.8,.8,5.2,1.3,13.4,1.4,6.7,.1,17.6,.4,24.2,.7,6.6,.2,18.8,.5,27,.5l15,.1-3.3,2c-2.3,1.4-5.9,2.2-12.3,2.7-9.1,.6-13.4,2.3-6,2.3,2.3,0,4.1,.4,4.1,.8,0,1.8-19.6,4.3-21.2,2.7Z"/><path id="pKi0CRShR" class="cls-1" d="M882.61,261.25c-5.8-.4-15.8-2.4-17.2-3.6-.7-.5-1-1.3-.8-1.8,.3-.4-.9-1.2-2.7-1.7-3.6-.9-3.4,.5-2.9-15.9l.1-3.1,6.3,1.9c9,2.8,21.5,3.6,25.4,1.6,1.7-.9,3.3-2.5,3.6-3.6,.4-1.7-.2-2.3-3.6-3.1-9-2.4-11.4-3.4-16.5-7.3-6.9-5.2-8.9-8.3-9.8-14.4-1.5-12,5.8-23.6,17-26.8,9-2.6,24.8-2.3,34.5,.7,3,.9,3.2,1.3,2.7,3.9-.4,2-.1,3.1,1.1,3.7,1.3,.8,1.5,2,1,7.2-.4,3.5-.9,6.5-1.1,6.7s-3.1-.3-6.4-1.1c-3.3-.9-9-1.6-12.6-1.6-11.3,0-16.9,4.8-8.3,7,15.3,4.1,19.5,7.2,23.6,17.8,2.8,7.3,2.4,13.7-1.5,21.3-4.6,9.2-15.1,13.2-31.9,12.2Zm-17.5-13.9c0-2.8,.3-3.5,1.5-3,5.1,1.9,18.5,3.8,23.9,3.3,7.3-.7,10.9-3.8,10.4-9-.4-4.1-1.9-4.3-4-.7-.9,1.7-3,3.5-4.5,4.1-5.3,2.1-21.3,1.1-28.9-1.8-1.1-.4-1.4,.5-1.4,4.4,0,2.7,.3,5.3,.7,5.6,1.5,1.5,2.3,.5,2.3-2.9Zm41.6-27.8c-2.7-2.2-15.2-6.6-18.6-6.6-3.1,.1,3.4,3.8,8.8,5,3,.6,6.8,1.8,8.6,2.6,4.3,1.9,4.5,1.7,1.2-1Zm-36-5.8c.1-17.4,12.8-26.1,35.6-24.3,7.2,.5,8.8,.4,8.8-.8,0-3.5-25.8-4.6-33.5-1.3-10.4,4.4-16,16.2-12.4,26.5,.6,1.7,1.2,3.1,1.3,3.1s.2-1.5,.2-3.2Z"/><path id="p121VsuEee" class="cls-1" d="M1051.61,260.85c-8.8-.7-15.5-2.6-15.5-4.3,0-.7-1.5-1.9-3.2-2.7l-3.3-1.4,.3-8.5c.2-4.7,.5-8.6,.6-8.7s2.8,.7,6.1,1.9c8.5,2.9,24.4,3.1,27.4,.4,3.5-3.2,2.5-4.3-5.9-6.9-5.7-1.8-9.6-3.7-13.4-6.8-8.1-6.6-10.2-12.1-8.2-21.9,3-14.4,13.9-21.1,33.6-20.4,8.3,.3,9.7,.5,17.2,2.5,3.5,.9,3.6,1.1,3.1,4.4-.5,2.9-.2,3.5,1.2,3.5,1.5,0,1.6,.7,1,5.3-.9,7.3-1.5,8.9-3,8.3-8.3-3.1-25-3.3-28.4-.2-1.1,1-1.8,2.2-1.5,2.7,.2,.5,3.7,1.8,7.7,3,11.5,3.3,14.8,5.7,18.5,13.3,1.8,3.6,3.2,7.4,3.2,8.5,0,3.4,10.7,6.5,22.6,6.6,7.7,0,9.5-.3,11.3-1.9,3.5-3.2,2.6-4.4-5.5-6.8-8.9-2.5-17.8-8.8-20.8-14.5-2.4-4.7-2.3-14,.2-19.6,3.2-7.1,10-12.4,18.2-14.2,5.1-1.2,21.7-.7,28,.8,5.4,1.2,5.5,1.3,5.8,5,.2,2.4,.8,3.7,1.7,3.7,1.2,0,1.3,1.2,.9,6.3-.4,3.4-.9,6.5-1.3,6.9-.3,.4-3.5,0-7.1-.9-9.3-2.1-20.3-1.5-23.2,1.4l-2.2,2.2,3.7,1.6c2,.8,4.4,1.5,5.4,1.5s4.7,1.5,8.3,3.3c5.9,2.9,6.8,3.7,9.4,9.2,7.4,15.2,2.6,30.4-11.1,35.5-4.4,1.6-8,2.1-16,2.1-5.6,0-11.1-.2-12-.5-1-.3-3.7-1-6-1.6-2.7-.7-4.3-1.7-4.3-2.6,0-.8-1.3-1.7-3-2-2.9-.6-3-.8-3.1-6.3q-.1-5.6-1.3-2.2c-4.2,11.7-16.2,16.7-36.1,15Zm-15.5-13.5c0-3.4,.1-3.6,2.8-2.9,19.6,5,29.6,4.5,32.7-1.6,1.8-3.4,1.9-5.1,.3-6.7-.9-.9-1.9-.3-4.2,2.4-2.4,2.7-4.3,3.8-7.9,4.5-4.8,.9-16.1-.1-22.4-2-1.7-.5-3.4-.7-3.7-.3-.8,.8-.7,8.7,.1,9.5,1.5,1.5,2.3,.5,2.3-2.9Zm59,.1q0-4,6.6-2c2.7,.8,8.5,1.8,13,2.1,6.5,.5,8.7,.3,11.6-1,4.3-2.1,6.4-6.6,4.7-9.8-1-1.9-1.2-1.9-4,1.5-1.6,1.9-4.1,3.9-5.6,4.4-3.8,1.3-17.5,.6-23.4-1.1-2.7-.8-5-1.2-5.2-.8-.2,.6-.2,5.2,.2,9,.3,2.9,2.1,.9,2.1-2.3Zm-16.6-27.5c-2-2.1-10.3-5.3-16.4-6.4l-3.5-.7,2.2,1.9c1.2,1.1,5.3,2.7,9,3.6,3.8,1,7.5,2.1,8.3,2.6,2.4,1.5,2.6,1.1,.4-1Zm59,0c-2-2.1-10.3-5.3-16.4-6.4l-3.5-.7,2.2,1.9c1.2,1.1,5.3,2.7,9,3.6,3.8,1,7.5,2.1,8.3,2.6,2.4,1.5,2.6,1.1,.4-1Zm-34.2-17.1c1.9-4.4,8.5-10.1,13.5-11.8,5.6-1.8,17.1-2.5,23.1-1.3,4.7,.8,5.2,.7,5.2-.8,0-4.2-25.3-5-34-1.1-6.3,2.8-9.5,6.6-11.5,13.4-1.4,5-1.5,6.5-.4,11l1.3,5.2,.7-5.5c.3-3,1.3-7.1,2.1-9.1Zm-59.6,2.4c1.1-3.9,2.5-6.1,5.8-9,6.3-5.5,10.9-6.8,24.8-6.8,7.3,0,11.8-.4,11.7-1-.1-1.7-10-3.3-19.4-3.2-7.8,.2-9.8,.6-15,3.2-6.9,3.5-9.8,7.2-11.6,14.9-.9,4.3-.9,6.1,.2,9.2l1.4,3.9,.3-3c.2-1.6,1-5.3,1.8-8.2Z"/><path id="pp4bm5RuV" class="cls-1" d="M1205.61,260.85c-6.7-.8-10.3-2.8-16.8-9.2-6.2-6-7.7-10.3-7.7-21.6,0-12.8,5.1-30.6,11.1-38.2,5.6-7.1,19.8-11.8,31.1-10.3,10.7,1.5,16.9,7.3,20.9,19.7,1.9,5.8,2.1,8.2,1.6,16.5-.6,10.1-3.4,21.7-6.7,28.3-2.6,5.1-8.4,10.7-12.9,12.6-4.6,2-14.2,3-20.6,2.2Zm13.1-14.5c4.2-2,7.7-8.9,9.8-19.6,2-9.5,2-16.5,.1-19.8-1.4-2.4-1.4-2.3-1.5,2.8,0,7-2.7,18.6-5.6,24.3-2.7,5.4-7.8,9.1-12.9,9.2-3.7,.1-4.3,.8-2.2,2.5,2.9,2.4,8,2.6,12.3,.6Zm-28.7-28.6c5.2-20.2,13.9-28.1,31.1-28.2,4.7-.1,9.9,.2,11.5,.7l3,.8-2.5-2.1c-9.2-7.4-31.6-4-38.3,5.8-7.5,10.8-12.1,31.9-9.5,43.4l1.2,5.3,.8-9c.4-4.9,1.6-12.4,2.7-16.7Zm25.2,18.6c4.8-4.6,8.9-19.3,8.1-28.6-.4-4.7-.5-4.8-3.8-4.8-5.3,0-10,4.8-12.4,12.9-2.5,8.2-4,20.4-2.7,22.7,1.3,2.4,7.3,1.1,10.8-2.2Z"/><path id="pdQ0m9Sx5" class="cls-1" d="M621.61,257.95c.6-1.8,.2-2-3.3-2h-3.9l.9-4.7c1.4-7.3,6.9-38.3,7.5-42.5l.6-3.8h-5.2c-4.8,0-5.2-.2-4.9-2.2s-.1-2.3-3.2-2.3c-2.5,0-3.5-.4-3.3-1.5,.1-.8,.7-4.8,1.3-8.7l1.2-7.3h56l-.7,4c-.6,3.6-.5,4,1.4,4,1.2,0,1.9,.5,1.6,1.3-.2,.6-.9,3.8-1.5,7l-1.1,5.7h-9c-4.9,0-8.9,.3-8.9,.8-.1,.4-2.2,12.6-4.8,27.2l-4.7,26.5-8.3,.3c-8,.3-8.3,.2-7.7-1.8Zm4.9-27.7c2.1-12,4-22.6,4.2-23.5,.4-1.3,0-1.8-1.5-1.8-1.2,0-2.1,.3-2.1,.8,0,.4-.7,4.5-1.5,9.2-.9,4.7-2.5,13.7-3.6,20-1,6.3-2.2,12.7-2.5,14.3-.5,2.2-.2,2.7,1.3,2.7,1.7,0,2.3-2.5,5.7-21.7Zm-11.6-36.6l.3-2.7h22.4c19.7,0,22.4-.2,22.9-1.6,.4-.9,.4-1.9,.1-2.2-.8-.9-47.6-.9-48.1-.1-.2,.4-.7,2.8-1.1,5.4-.5,4.3-.4,4.7,1.3,4.3,1.2-.2,2-1.3,2.2-3.1Z"/><path id="pPVcr6mfS" class="cls-1" d="M664.61,257.95c.6-1.8,.2-2-3.3-2h-3.9l.9-4.2c1.1-5.6,11.8-66.9,11.8-68.1,0-.5,8.2-.7,19.3-.5,17.5,.3,19.6,.5,23.4,2.6,5.4,2.8,8.6,7.1,11.3,15.2,2.4,7.2,2.2,12.5-.9,19.5-1.6,3.7-7.3,9.6-11.5,12-1.7,.9-1.6,1.2,.1,5.5,1.1,2.5,2.5,6.4,3.3,8.8,.7,2.3,1.7,4.1,2.2,4,.5-.2,3.3-4.8,6.2-10.3,2.8-5.5,7.3-13.8,9.8-18.5s6.1-11.4,8-15,5.6-10.4,8.2-15.2l4.8-8.8h18.3l1.8,5.8c1,3.1,2.9,11.8,4.3,19.2,3.1,16.7,9.4,51.2,9.4,51.7,0,.1-3.5,.3-7.9,.3-7,0-7.9-.2-8.4-2-.3-1.3-1.4-2-3-2-2.3,0-2.6-.5-3.2-5l-.7-5h-18.8l-3.1,7-3.2,7h-8.4c-8.1,0-8.4-.1-7.8-2.1,.6-1.8,.3-2-2.2-1.7-2,.2-2.7,.8-2.5,2.1,.3,1.5-.7,1.7-7.8,1.7s-8.2-.2-8.7-1.9c-.3-1.2-1.5-2.1-2.9-2.3-2.1-.3-2.9-1.6-5.9-10.3-1.9-5.5-3.5-10.1-3.5-10.2,0-.2-1.3-.3-2.8-.3q-2.8,0-4.6,11.3c-1.1,6.1-2.1,11.8-2.4,12.5-.3,.8-2.9,1.2-8.4,1.2-7.5,0-7.9-.1-7.3-2Zm5.9-33.7c2.7-15.3,5.1-29.1,5.4-30.6l.5-2.8,18.1,.3c9.9,.2,19,.7,20,1.2,1.5,.7,1.7,.6,1.1-.3-.4-.7-2.7-2.2-5.1-3.3-3.7-1.6-7-1.9-20.4-2.1-8.7,0-16.1,.1-16.4,.4-.3,.2-1.6,7-3,14.9-1.4,8-3.6,21.3-5.1,29.5-1.4,8.3-2.8,16.2-3.1,17.8-.5,2.2-.2,2.7,1.3,2.7,1.8,0,2.4-2.8,6.7-27.7Zm72.3-2.6l16.1-30.2,5.7-.3c5-.3,5.6-.5,5.3-2.3s-1.1-2.1-6.6-2.2c-3.5-.1-6.7,.3-7.2,.8-.4,.6-2.8,4.8-5.2,9.5-6.9,12.8-18.9,35.4-24.6,45.8l-5,9.2h2.6c2.5,0,3.9-2.2,18.9-30.3Zm27.6,27.3c-.3-1.1-1-2.3-1.6-2.7-.7-.4-.8,0-.4,1.1,.4,1,.7,2.4,.7,3.2,0,.9,.4,1.3,.9,1s.7-1.5,.4-2.6Zm-2.3-15.7c0-3.1-3.2-23.8-3.7-24.2-.5-.6,.1,7.6,1.3,16.7l.6,4.2h-6c-5.6,0-9.2,1.6-7.5,3.3,.9,1,15.3,.9,15.3,0Zm-6.6-11.5c-.4-2.4-.8-4.4-.9-4.5,0-.2-1.1,1.8-2.3,4.2l-2.2,4.5h3c3,0,3-.1,2.4-4.2Zm-54.8-3.1c2.4-2.8,3.2-8.4,1.7-12.3-.5-1.2-1-.6-2.2,2.6-2,5.5-5.4,7.9-11.6,8.6-6.7,.7-7.5,1-7.5,3,0,1.4,1.2,1.6,8.6,1.3,7.9-.4,8.7-.6,11-3.2Zm-5.5-7.8c1-1.3,1.9-3.4,1.9-4.6,0-2.2-.4-2.3-6.4-2.3h-6.4l-.7,3.3c-.4,1.7-.9,4-1.2,5.1-.5,1.7,0,1.8,5.2,1.4,4.6-.4,6.1-1,7.6-2.9Z"/><path id="pAj9dLkVP" class="cls-1" d="M796.11,257.95c0-1.6-.6-2-3.6-2-3.4,0-3.5-.2-3-2.7,.7-3.4,3.9-21.6,7.2-41.3,1.3-8,2.9-16.7,3.5-19.5,.5-2.7,1.2-6,1.5-7.2,.4-2.2,.9-2.3,8.7-2.3h8.2l6.9,15.7c3.8,8.6,7.4,16.9,8,18.4,.6,1.6,1.3,2.9,1.7,2.9,.3,0,1.8-7.5,3.3-16.7,1.5-9.3,3-17.6,3.2-18.5,.5-1.6,1.8-1.8,9.6-1.8h9.1l-.6,4c-.4,3.5-.3,4,1.5,4,1.2,0,1.8,.5,1.5,1.3-.2,.6-3,16.2-6.3,34.5l-5.8,33.2h-6.8c-5.7,0-6.9-.3-7.8-2-.6-1.1-2-2-3.1-2s-2.2-.8-2.6-1.7c-.3-1-1.7-4.2-2.9-7.1-1.3-2.9-2.4-5.5-2.4-5.7s-1.3-3.3-2.9-6.7c-1.5-3.5-3.2-7.3-3.6-8.6s-1-2.1-1.3-1.7c-.4,.4-2.1,8.4-3.7,17.8l-3.1,17.2-7.2,.3c-6.7,.3-7.2,.1-7.2-1.8Zm1.3-7.7c.3-1,2.6-14.2,5.2-29.3s4.9-28.1,5.1-28.7c.2-.8,2.1-1.3,4.9-1.3,3.2,0,4.5-.4,4.5-1.4,0-2.1-1.7-2.9-7.1-3.1-4.8-.2-4.9-.2-5.5,3.4-.3,2-1.2,6.8-2,10.6-.7,3.9-2.5,13.8-3.9,22-1.4,8.3-3.1,18.3-3.8,22.3-1.2,6.7-1.2,7.2,.4,7.2,1,0,2-.8,2.2-1.7Zm46.7-36.3c4.4-25.3,3.6-23,7.5-23,3,0,4.5-1.3,4.5-4,0-.4-2.3-.7-5.2-.5-6.2,.3-5.5-1.5-9.8,24-2.6,14.8-2.9,18.3-1.9,20.5,1.5,3.2,1.3,3.8,4.9-17Z"/><path id="p6GqByuwd" class="cls-1" d="M924.61,257.95c.6-1.8,.2-2-3.3-2h-4l.9-3.7c.4-2.1,2.2-12.1,3.9-22.3s3.7-21.6,4.5-25.5c.7-3.8,1.9-10.3,2.5-14.3l1.2-7.3,8,.3,8,.3,7,13.6,7,13.6,3.7-4.1c2-2.2,7.4-8.5,12-13.8l8.3-9.8h17l-.4,3.6c-.3,2.9-.1,3.8,1.4,4.2,1.2,.3,1.6,1.1,1.3,2.6-.5,2-9.4,52.9-11,62.4l-.7,4.2h-7.4c-6.7,0-7.4-.2-7.4-2,0-1.6-.7-2-3.5-2-2.3,0-3.5-.5-3.5-1.4,0-1.2,3.1-18.6,4.4-24.8,.2-1,.3-1.8,.1-1.8-.1,0-3,3.4-6.5,7.5s-6.6,7.5-7.1,7.5c-.4,0-1-.9-1.4-2-.4-1.2-1.4-1.9-2.5-1.7-1.4,.1-2.9-1.9-6.3-8.8-5.2-10.4-4.4-11.4-8.2,10.5-1.4,8-2.8,15.5-3,16.8-.5,2-1.1,2.2-8.1,2.2s-7.5-.1-6.9-2Zm5.9-33.7c2.7-15.3,5.1-29,5.3-30.5,.5-2.6,.9-2.8,5.5-2.8,4.9,0,5,0,3.6-2.2-1.4-2-2.9-2.3-10.2-1.9-.9,.1-1.7,1.8-2.1,4.4-.4,2.3-2.9,16.8-5.6,32.2-2.7,15.3-4.9,28.1-4.9,28.2,0,.2,.8,.3,1.8,.3,1.6,0,2.4-3.3,6.6-27.7Zm47.6,27.4c0-.1,1.1-6.7,2.5-14.5s2.5-15.5,2.5-17v-2.7l-2,3c-1.1,1.8-2.7,8-4,15.5-1.1,6.9-2.3,13.3-2.6,14.3-.4,1.2,0,1.7,1.5,1.7,1.2,0,2.1-.1,2.1-.3Zm-1-46.2c11.4-13.4,12.6-14.5,15.7-14.5s5.5-2.2,4-3.6c-1.1-1.1-9.7-1.1-11,0-1.3,1-6.4,6.9-19.1,21.9-4.4,5.2-4.8,6-3.8,8.2,.7,1.4,1.3,2.5,1.6,2.5,.2,0,5.9-6.5,12.6-14.5Z"/><path id="p41giueoj" class="cls-1" d="M1006.61,257.95c.6-1.8,.2-2-3.3-2h-3.9l.9-4.2c1.1-5.4,11.8-66.9,11.8-68,0-.4,4.5-.8,10.1-.8h10.1l-.7,4c-.6,3.3-.4,4,.9,4,1,0,1.6,.8,1.5,2.3,0,1.2-2.6,16.6-5.8,34.2l-5.7,32-8.3,.3c-7.9,.3-8.2,.2-7.6-1.8Zm5.9-33.7c2.7-15.3,5.1-29,5.3-30.5,.5-2.5,1-2.8,4.8-2.8,3,0,4.5-.5,4.9-1.6,1.1-2.9,.6-3.1-11.1-2.5-.6,.1-1.4,2-1.8,4.4-.4,2.3-2.9,16.8-5.6,32.2-2.7,15.3-4.9,28.1-4.9,28.2,0,.2,.8,.3,1.8,.3,1.6,0,2.4-3.3,6.6-27.7Z"/><path id="pT9G3mQc8" class="cls-1" d="M1155.11,257.95c0-1.6-.7-2-3.5-2-1.9,0-3.5-.2-3.5-.4,0-.3,1.1-6.5,2.4-13.8,1.4-7.3,3.9-21.8,5.6-32.3,1.8-10.4,3.6-20.7,4.2-22.7l.9-3.8h9.9c5.5,0,10,.1,10,.3,0,.1-.4,1.7-1,3.6-.8,2.9-.7,3.4,1.1,3.8,1.6,.4,1.9,1.1,1.4,3.2-.6,3.2-11.5,64.9-11.5,65.6,0,.3-3.6,.5-8,.5-7.3,0-8-.2-8-2Zm1.5-8.2c.3-1.3,2.5-14.2,5-28.8,2.6-14.6,4.8-27.3,5.1-28.2,.3-1.2,1.8-1.8,4.7-2,3.3-.2,4.2-.7,4.2-2.2,0-1.6-.8-1.9-5.4-2q-6.3-.3-8.5,12.9c-1.9,11.2-7.2,41.4-8.4,47.8-.9,4.2-.8,4.7,.9,4.7,1.1,0,2.1-.9,2.4-2.2Z"/><path id="pCSkk7kcw" class="cls-1" d="M1251.11,257.95c0-1.6-.6-2-3.5-2-1.9,0-3.5-.1-3.5-.2,0-.2,.9-5.2,1.9-11.3,4.5-25.2,6.2-35.1,8.1-46.2,2.9-16.7,1.8-15.3,10.9-15.3,5.1,0,8.2,.4,8.8,1.3,.5,.6,2.3,4.4,4,8.2,1.7,3.9,4.3,9.6,5.7,12.8s2.6,6,2.6,6.2c0,.3,1,2.6,2.2,5.2l2.2,4.6,2.8-16.4c1.5-9,3-17.6,3.4-19.1l.6-2.8h18l-.3,3.8c-.2,2.5,.1,3.6,.9,3.5,1.9-.4,1.6,2.2-4.5,37l-5.7,32.7h-6.8c-5.7,0-6.9-.3-7.8-2-.6-1.1-1.9-2-2.9-2-1.9,0-3.3-2.7-11.7-22.7-2.1-5.1-4.1-9-4.4-8.7-.2,.3-1.8,8.3-3.5,17.7l-3,17.2-7.2,.3c-6.8,.3-7.3,.1-7.3-1.8Zm1.4-7.7c.2-1,2.5-13.9,5.1-28.8,2.5-14.8,4.8-27.8,5.1-28.7,.4-1.4,1.6-1.8,5-1.8,3.7,0,4.4-.3,4.4-2,0-1.1-.6-2-1.2-2.1-.7,0-3.3-.1-5.7-.3-5.2-.3-5.4,0-7.5,12.9-1.9,11.2-7.2,41.4-8.4,47.8-.8,4.2-.8,4.7,.9,4.7,1,0,2-.8,2.3-1.7Zm47.1-38.9c1.9-10.9,3.5-20,3.5-20.1,0-.2,1.6-.3,3.5-.3,3.3,0,5.7-2.1,4.2-3.6-.9-.9-9.8-1.1-10.3-.2-.3,.5-2.1,9.7-4,20.4-3.1,17.9-3.5,26.9-1.3,24.7,.5-.5,2.5-9.9,4.4-20.9Z"/><path id="pZDXzYOU3" class="cls-1" d="M64.81,255.35c-.1-.2-9.5-.4-20.7-.5-19.2-.2-26.2-1-24.6-2.7,.9-.8,1.3-.8,8.9-1,3.3-.1,5.7-.7,5.7-1.3s-1.5-.9-3.6-.7c-3,.2-3.8-.1-4.5-2-.8-2.1-.6-2.2,3.9-2.2,6.4-.1,13.2-1.7,16.3-4,2.3-1.6,3.8-1.8,10-1.3,4.1,.3,7.1,.3,6.8-.1-1.7-1.8-12.4-3.6-21.6-3.6-6.2,0-10.3-.4-10.3-1,0-.5,1.5-1,3.3-1,1.7,0,3.9-.5,4.7-1,1.2-.8,1-1-.9-1-1.3,0-2.1-.3-1.8-.7,.4-.3,6.9-.7,14.4-.7,11.8-.2,14.8,.1,20.3,2,4.2,1.4,11.7,2.6,21.1,3.4l14.6,1.3,6.1,8.4c3.4,4.6,6.2,8.8,6.2,9.3,0,1.5-19.2,.9-22.5-.7-3.6-1.8-15.6-2.6-18.8-1.3-2.1,.8-2,.9,.7,.9,1.6,.1,2.7,.4,2.3,.7-.5,.6-15.4,1.3-16,.8Z"/><path id="pLKWXPAgF" class="cls-1" d="M475.11,253.95c.1-.3,4.1-5.9,8.9-12.5l8.8-12,49.8-.3,49.9-.2-5,2.5c-2.7,1.4-6.5,2.8-8.4,3.1q-4.5,.8-1.9,3.3l2.3,2.1-16,.1c-17.6,.1-20.6,.3-26.1,1.5-3.6,.7-3.4,.8,3.5,1.5s9.1,1.3,8.1,2.3c-.2,.2-4.5,.7-9.4,1.1-7.4,.6-9.8,.4-13-1-3-1.2-6.7-1.6-14.4-1.6-11.3,.2-13.5,.6-7.5,1.6,2.2,.3,5.5,1.2,7.4,2,1.9,.7,4.7,1.6,6.3,1.9,3.8,.9,3.6,3.6-.3,3.6-1.6,0-3,.3-3,.8,0,.4-9,.7-20,.7s-20-.2-20-.5Z"/><path id="p2BsKyAqU" class="cls-1" d="M221.31,244.25c-.8-1.7-1.5-5.9-1.6-9.3-.2-5.6,0-6.1,1.9-5.8,1.7,.3,2,1.1,2.1,5.8,0,3-.2,7.1-.5,9l-.6,3.5-1.3-3.2Z"/><path id="pbbt625DO" class="cls-1" d="M368.21,242.05c-.6-2.9-1.1-7-1.1-9.1,0-3.6,.3-4,2.5-4,2.4,0,2.5,.3,2.5,5.9,0,3.2-.6,7.3-1.4,9.2l-1.4,3.2-1.1-5.2Z"/><path id="pcF3KMUpy" class="cls-1" d="M100.51,234.55c-1.1-.8-3.3-1.6-4.9-1.8-1.9-.2-3.1-1-3.3-2-.3-1.5,.4-1.8,4-1.8s4.8,.5,6.6,3c1.2,1.6,2.2,3.2,2.2,3.5,0,1-2.6,.5-4.6-.9Z"/><path id="p2aBPchu6" class="cls-1" d="M11.71,202.85c.3-.5,1.2-.9,2-.9s1.4-.5,1.4-1c0-1.2,3.3-2.6,7.6-3.3,1.6-.3,5.2-1.7,7.9-3.1,4.3-2.2,6.4-2.6,15.7-2.8l10.7-.3-.6,2.4c-.5,2-.3,2.3,1.1,1.8,1-.4,2.2-.7,2.7-.7s.8-.3,.8-.7c-.4-2.2,.4-2.3,3.6-.3,3.6,2.2,4.2,1.7,2.6-2.5-.8-1.9,.3-4.5,1.9-4.5,.9,0,10.7,13.1,11.6,15.4,.4,1-6.5,1.3-34.5,1.3-20,0-34.8-.3-34.5-.8Z"/><path id="phsX9VMm5" class="cls-1" d="M135.41,203.25c-.7-.3-5.2-5.9-10-12.5-4.9-6.6-11.8-16.1-15.5-21.1-6.7-9.1-8.4-13.7-5.2-13.7,.9,0,3,1,4.7,2.2,2.7,1.9,3,2,2.4,.4-2-5-1.8-6.3,.7-8.4,3-2.3,3.3-3.2,.9-3-4.1,.3-5.4-.4-6.9-3.9l-1.6-3.8-1,3.4c-1.4,5-1.9,3.1-.8-2.8,1-5.6,.7-9.7-1.1-14.4-2-4.8,2.2-7.4,6.5-4.2,3,2.3,3.5,1.8,2.3-2.1-.9-2.9-.8-3.8,.4-4.4,.7-.5,2.3-1.6,3.4-2.4,1.9-1.4,1.7-1.5-2.6-1.6-4.4,0-4.7-.2-5.2-3-.8-3.8-2.4-3.8-3.2,0-.6,2.7-1,3-4.8,3l-4.2,.1,3.1,2.7c1.8,1.6,2.9,3.4,2.6,4.5-.5,2.5-1.6,2.1-4.5-1.5-1.3-1.8-4.8-5.7-7.7-8.6s-5-5.5-4.8-5.7c.2-.3,2,.6,3.9,2l3.6,2.4-1.1-4.1c-1-3.6-.9-4.2,.7-5.2,5.3-3.2,5.4-3.5,.5-3.6-4.3,0-4.7-.2-5.3-3-.4-1.7-1-3-1.5-3s-1.1,1.3-1.5,3c-.6,2.7-1,3-4.6,3-4.5,0-5,1.2-1.3,2.9,1.5,.6,2.4,1.4,2.2,1.7-.3,.2-2.5-.5-4.9-1.6s-5.3-2-6.4-2c-2.2,0-12.5,4.5-12.5,5.5,0,.3,.6,1.8,1.4,3.3,.7,1.5,1.7,3.7,2,5,.7,2,.4,2.2-3.5,2.2h-4.3l3.3,2.8c3.2,2.7,3.4,3,2.3,6-1.3,3.7-1,3.9,2.7,1.3,1.5-1.1,3.2-1.7,3.8-1.3,1.3,.9,5.3,8.7,5.3,10.5,0,1.7-12.7,7.7-17.9,8.4-3.1,.4-3.9,.2-4.5-1.3-.5-1.4,0-2.5,1.8-3.9,3.5-2.8,3.3-3.9-.5-3.1-2.8,.5-3.2,.3-4.6-3.4-.9-2.2-1.9-3.7-2.4-3.4-.4,.2-2.5-3.2-4.5-7.6-2.1-4.4-4-8-4.3-8s-1.5,.7-2.5,1.5c-1.1,.8-3.7,1.5-5.8,1.5-3.3,0-3.8-.3-3.8-2.4,0-1.6,.7-2.6,2.3-3,3.9-1.2-5.5-4.6-13.5-4.9-10.1-.4-10.7-2.8-.8-4,2.6-.3,6.2-1.5,8-2.5,2.4-1.5,3.9-1.8,6.2-1.2,3.4,1,5.7,.4,7.8-2.1,1.4-1.7,9.4-4.2,10.4-3.2,.2,.3,0,1.8-.6,3.3-.8,2.5-1.6,2.9-5.1,3.2l-4.2,.3,3.3,2c2.5,1.5,3.2,2.5,2.8,4-.3,1.1-.9,3.1-1.3,4.5l-.6,2.4,2.8-2.2c3.3-2.6,5.2-2.8,7.7-.5,2.4,2.1,3.1,1.3,1.8-2.2-1.2-3.1-.2-5,3.1-6,3.3-1.1,2.1-2.5-2-2.5-3.5,0-4-.3-5-3.1-.6-1.8-1.1-3.3-1.1-3.4,0-.2,2.5-.6,5.5-1,3-.3,5.5-.9,5.5-1.3s-2.5-1.8-5.5-3.1-5.5-2.6-5.5-3c0-.3,2-1.4,4.5-2.5l4.6-1.8,3.4,2.3c3.7,2.6,4,3.4,2.5,7.3-1.1,3.1-.4,3.2,3,.6,2.4-1.8,2.5-1.8,5.7,.1,3.5,2.2,3.9,1.7,2.3-2.5-.8-2.2-.5-2.8,2.3-5l3.2-2.6h-4.4c-9.9,0,.7-2.7,11.9-3,2.3-.1,2.4-.2,.7-1.4-1.6-1.3-1.6-1.5,.8-3,2.4-1.6,2.7-1.6,5.4,.4,4,2.8,4.4,2.6,2.6-1.6l-1.4-3.5,3.7-2.2,3.7-2.2-4.5-.5c-4-.4-4.5-.8-5.4-3.7-1.2-4.3-2.2-4.2-3,.2-.7,3.3-.9,3.5-4.9,3.5l-4.2,.1,3.1,2.5c3,2.3,3.1,2.7,2.1,5.9-.7,2.5-1.7,3.6-3.6,3.9-4.5,1-11,.4-12.2-1-.9-1.1-1.3-1.1-2.5,0-.8,.9-3.4,1.3-7.1,1.2q-5.7-.1-7.2-4c-1.3-3.4-1.3-3.9,.1-4.7,.8-.4,2.5-1.6,3.7-2.6q2.2-1.8-2.3-1.5c-2.9,.3-4.6,0-4.6-.7,0-.6,1.8-1.1,4-1.1,2.9,0,4-.4,4-1.5,0-1.7-4.1-3-7-2.2-1,.3-2.1,0-2.3-.7-.3-.8-.8-.8-1.9,.2-2.1,1.7-6.4,0-7.3-2.7-.3-1.2-1.5-2.1-2.5-2.1s-2.6-.3-3.5-.7c-4.4-1.6,23.6-6.4,28.5-4.8,2.3,.7,2.4,2.8,.4,7.9-.7,1.9-.6,1.9,2.3-.2,3.8-2.7,4.4-2.7,7.8,0l2.8,2.2-.6-2.6c-.4-1.4-.9-3.3-1.3-4.1-.3-.9,.7-2.2,2.8-3.5l3.3-2.2-2.7-.1c-1.6-.1-3.3-.2-4-.3-.6,0-1.9-1.9-2.8-4.1l-1.7-4-.7,3.2c-.4,1.8-1.3,3.6-1.9,4-2,1.2-11.7,1.4-13.8,.3-1.1-.6-3.9-1.5-6.2-2-3.2-.6-3.5-.8-1.4-.9,1.5-.1,5.5-1.2,8.8-2.6l6-2.6h41.5c26.7,0,41.3-.3,40.9-.9-.3-.6-1.4-1-2.4-1s-3.3-.6-5.1-1.4l-3.2-1.3,3.8-.5c7-.9,84.4-.2,84.2,.8-.5,2.5-9.9,13.1-11.5,12.9-2.9-.2-4.1-1.3-4.9-4.8l-.7-3.2-1.8,4.3c-1.7,3.9-2.1,4.2-5.6,4.2h-3.8l3.3,2c2.3,1.4,3.2,2.6,2.8,3.6-.3,.9-.9,2.7-1.2,4.1l-.7,2.6,3.1-2.3c3.5-2.6,6.9-2.1,5.6,.8-.4,.9-2.6,7-4.8,13.4-3.3,9.9-4.3,11.8-6,11.8-2,.1-2.1,.1-.2,1.5,1.8,1.4,1.8,2,.7,11.2-1.2,10.8-1.6,26.6-.6,32.8,1.6,10.5,2.7,15.8,4,19.6,2.5,6.9,2.1,8.2-2.2,7.7l-3.6-.4,3.2,2.6c2.8,2.4,3.1,3,2.1,5.4-1.6,4.3-1.2,4.8,2,2.4,2.4-1.7,3.5-2,4.7-1.2,4.7,3,8.3,12.6,6.3,16.5-.6,1.1-1.4,3.9-1.8,6.2-.9,5.2-3.2,5.6-4.5,.7l-1-3.5-1.5,3.8c-1.4,3.4-1.8,3.7-5.6,3.7-3.9,.1-4,.1-2.1,1.6,1.1,.8,2.6,1.9,3.4,2.3,1.1,.7,1.2,1.5,.2,4.1-1.4,4.2-.9,4.7,2.5,2.1,2.6-2,5.3-1.7,6.9,.9,.3,.6,1.1,1,1.6,1,.9,0,.7-1.7-.9-5.9-.3-.8-.1-1.2,.5-.8s1.4,1.9,1.8,3.4c.3,1.6,1.7,4.2,3.1,6,1.3,1.7,2.4,3.6,2.4,4.1,0,1-69,1.4-71.7,.5Zm17.7-9.3c3.4,2.6,4.1,2.5,3-.6-1.6-4.1-1.2-5.2,2.3-7.1l3.2-1.8-4.4-.5c-4-.4-4.6-.9-5.7-4l-1.2-3.5-1.1,2.8c-.6,1.6-1.1,3.3-1.1,3.8s-1.9,.9-4.2,.9l-4.3,.1,3.2,2.7c2.4,2.1,2.9,3.1,2.3,4.7-1.7,4.1-1.2,4.8,2.3,2.6,3.2-1.9,3.3-1.9,5.7-.1Zm-21.1-17.1c3.9,2.8,4.1,2.7,2.8-1.5-1-3.3-.9-3.7,1.9-5.9l2.9-2.4-4.2-.1c-3.5,0-4.3-.4-4.3-1.8,0-1-.6-2.7-1.4-3.7-1.2-1.7-1.4-1.5-2,1.8-.7,3.6-.9,3.7-4.9,3.7l-4.2,.1,3.2,2.7c2.4,2.1,2.9,3.1,2.3,4.7-1.7,4-1.1,4.7,2,2.5l3-2.1,2.9,2Zm44.1,.1c3.5,2.7,4,2.5,2.8-1.4-1-3.2-.9-3.7,1.8-6l2.9-2.5-3.8-.1c-3.3,0-3.9-.4-4.8-3-.6-1.6-1.5-3-1.9-3-.5,0-1.1,1.4-1.5,3-.6,2.7-1,3-4.8,3l-4.2,.1,3.2,2.7c2.4,2.1,2.9,3.1,2.3,4.7-1.7,4.1-1.2,4.8,2.3,2.6,3.2-1.9,3.3-1.9,5.7-.1Zm-29-19.5c1.6-1.9,3.9-1.9,6.4,0,3,2.3,3.6,1.8,2.4-1.7-1-2.8-.9-3.3,1.5-5.4,3.4-2.9,3.4-3.2-.2-2.9-3.8,.3-4.5-.3-5.8-4.5l-1-3.5-1.2,3c-.6,1.7-1.3,3.5-1.6,4.2-.2,.6-2,1-3.9,.9-4.4-.2-4.5,.4-.5,2.8,2.2,1.3,2.8,2.3,2.4,3.4-2.1,5.1-1.3,7,1.5,3.7Zm32-17.9c-1.5-4-1.3-5.1,1.5-6.6,3-1.6,2.4-3-1.1-2.4-2.1,.4-2.7-.1-4.4-3.8-1.6-3.6-2-3.9-2.5-2.3-1.9,6-2.3,6.4-5.4,5.9-3.8-.6-3.9,.4-.5,3.1,2.3,1.8,2.4,2.3,1.4,4.9-1.4,3.7-.9,4,2.8,1.9,3-1.7,3.2-1.7,5.9,.3,3.4,2.6,3.7,2.5,2.3-1Zm-53,.9c1.6-1.9,3.5-1.9,6.6,.1l2.5,1.7-.7-3.9c-.5-3.5-.3-4.1,2-5.3,3.2-1.8,2.5-3.1-1.5-2.6-1.7,.3-3.2-.1-3.4-.8-.3-.7-1-2.5-1.6-4.2l-1.1-3-1.2,4c-1.1,3.8-1.3,4-4.9,3.7-4.3-.4-4.8,.9-1.1,2.8,2.3,1.3,2.5,1.9,2,5.2-.7,4,.3,4.9,2.4,2.3Zm21-19c1.6-1.9,3.9-1.9,6.4,0,2.9,2.2,3.7,1.8,2.6-1.1-1.5-3.9-1.2-4.8,2.3-6.9l3.2-2-4.4-.5c-4-.5-4.6-.8-5.7-4l-1.2-3.5-1.1,2.8c-.6,1.6-1.1,3.3-1.1,3.8s-2.1,.9-4.7,.9h-4.8l3.8,2.7c2.6,1.8,3.6,3.2,3.1,4.2-2,5-1.2,6.9,1.6,3.6Zm32-17.9c-1.5-4.1-1.3-5,2.3-7.1l3.2-2-4.4-.5c-4-.5-4.6-.8-5.7-4l-1.2-3.5-1.1,2.8c-.6,1.6-1.1,3.3-1.1,3.8s-1.8,.9-4,.9c-4.8,0-5,.9-1,3.2,2.7,1.5,2.9,2,2,4.3-1.6,4.3-1.2,4.8,2.3,2.6l3.3-2,2.9,2.4c3.6,2.8,3.9,2.6,2.5-.9Zm-48.5-.6c.3,.5,1.5,1.5,2.7,2.1,1.9,1,2,.9,1.3-2.8-.5-3.5-.3-4,1.9-5.3,3.6-1.9,3.2-3-.9-3-3.1,0-3.7-.4-5.1-3.7l-1.6-3.8-1.2,3.5c-1.1,3-1.8,3.5-4.9,3.8-4.4,.4-4.7,1.4-1.1,3.1,2.4,1.1,2.6,1.5,2,5.2l-.7,4.1,3.5-2.1c2.2-1.4,3.7-1.8,4.1-1.1Zm-27.3-18.8c1.5-1.2,2-1.2,4.7,.7,3.8,2.7,4.3,2.6,3.1-.5-1.5-3.9-1.2-4.7,2.3-7.1l3.2-2.3h-4.3c-3.9,0-4.3-.3-5.8-3.7l-1.7-3.8-.9,3.8c-1,3.5-1.2,3.7-5.1,3.7h-4.2l3.2,2.6c2.8,2.2,3.1,2.8,2.3,5-1.9,4.8-1,5.2,3.2,1.6Zm49.7,.7c3.8,2.7,4.3,2.6,3.1-.5-1.5-3.9-1.3-4.7,2-6.9l3-2-4.2-.5c-3.7-.4-4.3-.9-5.4-4l-1.2-3.5-1.1,2.8c-.6,1.6-1.1,3.3-1.1,3.8s-1.9,.9-4.2,.9l-4.3,.1,3.2,2.7c2.4,2.1,2.9,3.1,2.3,4.7-1.7,4-1.1,4.7,2,2.5l3-2.1,2.9,2Zm-20.8-16.8l3.1,2.2-.7-4.1c-.6-3.7-.4-4.2,2.2-5.6,3-1.5,2.4-2.2-2.6-2.8-1.8-.2-2.8-1.3-3.6-3.8-1.1-3.4-1.2-3.4-2.3-1.3-.7,1.2-1.2,2.9-1.2,3.7,0,1.2-1,1.6-4,1.6-4.8,0-5,.9-1,3.2,2.7,1.5,2.9,2,2,4.3-1.6,4.2-1.2,4.8,2,2.5l3-2.1,3.1,2.2Zm39.1-.9c1.5-1.2,2-1.2,4.7,.7,3.8,2.7,4.3,2.6,3.1-.5-1.5-3.9-1.2-5.3,1.5-6.6,3.5-1.6,3.1-2.6-1.2-3-3.1-.3-3.8-.8-4.9-3.8l-1.2-3.5-1.1,2.8c-.6,1.6-1.1,3.3-1.1,3.8s-1.9,.9-4.2,.9h-4.3l3.2,2.6c2.8,2.2,3.1,2.8,2.3,5-1.9,4.8-1,5.2,3.2,1.6Zm-66-20.2c.6,0,2.1,.9,3.5,2,3.2,2.5,3.6,2.2,2.1-2-1-3.1-.9-3.5,1.5-5.5,3.5-2.7,3.4-3.4-.5-3.2-2.8,.2-3.5-.3-4.7-3-.8-1.8-1.8-3.3-2.1-3.3-.4,0-1.1,1.5-1.7,3.3-.8,2.9-1.2,3.2-4.6,2.9-4.3-.3-4.8,.9-1.1,2.8,2.3,1.3,2.5,1.8,1.9,5.8l-.7,4.5,2.8-2.2c1.4-1.1,3.1-2.1,3.6-2.1Zm45,0c.6,0,2.1,.9,3.5,2,3.2,2.5,3.6,2.2,2.1-2-1-3.1-.9-3.5,1.5-5.6,2.5-2.2,2.6-2.3,.7-2.9-1.1-.3-2.4-.4-2.9-.1-1.2,.8-2.8-1.3-3.7-4.9l-.7-2.9-1.9,4.3c-1.7,4.1-2,4.2-5.3,3.8-4.3-.6-4.5,.3-.4,2.7,2,1.2,2.8,2.3,2.5,3.3-.4,.8-.9,2.7-1.3,4.1l-.6,2.6,2.8-2.2c1.5-1.2,3.2-2.2,3.7-2.2Z"/><path id="pPy4rgVwz" class="cls-1" d="M379.11,202.95c0-.5,.5-1.2,1.1-1.6,1.8-1.1,7.7-10.9,10.1-16.9l2.3-5.7h33c18.2,.1,33.3,.1,33.7,.1,1.4,.2-7.6,23-9.1,23.2-12.2,1.2-71.1,2-71.1,.9Z"/><path id="p11yFWTNeM" class="cls-1" d="M545.11,197.55c2-.6,6.2-2.7,9.5-4.4,6.7-3.7,7.7-3.8,11-1.6,3.8,2.5,3.2,4.4-1.4,4.4-2.1,0-5.4,.3-7.2,.7l-3.4,.7,3,.7c1.9,.4-.4,.7-6,.7-8.4,.1-8.8,0-5.5-1.2Z"/><path id="p14eV4YxXS" class="cls-1" d="M37.21,177.75c-2.5-.4-5.1-1.4-5.9-2.1-2.5-2.6,.9-2.4,11.8,.5l10.5,2.7-6-.1c-3.3-.1-8-.6-10.4-1Z"/><path id="p1GP73Tjv0" class="cls-1" d="M16.11,159.95c-1.3-.9-1.3-1.1,0-1.9,1.7-1.2,3-.5,3,1.5,0,1.6-.9,1.8-3,.4Z"/><path id="p14HNejaVx" class="cls-1" d="M428.21,153.15c-34-.2-36.3-.3-35.6-2,.4-.9,1.6-6.4,2.7-12.2,1.2-5.8,2.3-10.7,2.4-10.9,.2-.2,5.2-.3,11.1-.1,5.9,.1,21.7,.5,35.1,.7l24.2,.5v3.2c0,4.8-2.1,20-2.9,20.6-.3,.3-17,.4-37,.2Z"/><path id="p12fDjD2cE" class="cls-1" d="M531.11,137.95c-1.8-.6-.9-.8,3.4-.9,3.3-.1,5.7,.1,5.5,.3-1,.9-6.7,1.2-8.9,.6Z"/><path id="pZa3d85h0" class="cls-1" d="M12.71,135.85c-1.8-2.6-1.3-3.9,1.5-3.9,1.5,0,1.9,.6,1.6,2.5-.4,3.5-1.3,3.9-3.1,1.4Z"/><path id="pZ9XyNqh5" class="cls-1" d="M693.11,134.75c-2.9-.5-8.1-2.3-11.5-4.2-8-4.4-11.6-10.9-12-21.8-.4-10.7,3.8-29.6,8.2-36.6,6.6-10.7,16.5-15.4,30.9-14.8,10.3,.5,15.6,3.2,20.2,10.4,6.6,10.4,7.6,18.7,4.3,34.9-3.3,15.7-8.7,25-17.3,29.4-3.2,1.6-5.8,2.2-14.8,3.3-1.4,.2-5-.1-8-.6Zm-16.8-21.7c-.5-10.8,1.7-22.6,5.9-32,5.8-12.7,13.4-17.5,28.1-17.6,10.7,0,10-1.6-1-2.3-18.8-1.1-27.5,5.8-33.4,26.5-2.6,9.3-3.1,25.8-.9,31.1,.7,1.7,1.4,3.2,1.5,3.2s0-4-.2-8.9Zm30.3,7.5c5.9-2.5,9.4-10.4,11.5-25.7,.8-5.9,.8-8.9,0-11.5-1.8-5.5-2.5-4.7-2.6,3.4-.1,7.9-2.3,17-5.4,23.2-2.7,5.2-6.5,8.3-11.3,9-4,.7-4.1,.7-1.7,1.8,3.4,1.5,5.5,1.4,9.5-.2Zm-3.3-7.3c4.6-4.2,8.8-17.5,8.8-28,0-7.2-1.3-8.8-6.5-7.9-6,1.2-10.2,8.9-12.5,22.8-1.4,8.6-1.3,14.5,.3,15.2,2.1,.9,7.9-.3,9.9-2.1Z"/><path id="pWYQHQWhQ" class="cls-1" d="M523.31,132.15l.3-2.7,11.4-.3,11.4-.3-.7,2.3c-.3,1.3-.6,2.6-.6,2.9s-5,.7-11.1,.7l-11,.1,.3-2.7Z"/><path id="p19CB49T6D" class="cls-1" d="M579.11,131.95c0-2.6,.4-3,2.6-3,3.3,0,12.5,4,11.8,5.1-.3,.5-3.6,.9-7.5,.9h-6.9v-3Z"/><path id="pvmqydVjc" class="cls-1" d="M608.61,132.95c-.3-.5-2.2-1-4.1-1s-3.3-.4-3-.8c.3-.5,2.3-11.4,4.5-24.3,6.5-38,8.2-47.3,8.6-47.7,.2-.2,8.1-.3,17.7-.3,23.3,.1,27.9,1.8,34.3,12.8,3.5,5.8,4.1,11.7,2.1,18.7-1.9,6.3-8.2,14.2-12.2,15.2-1.3,.4-2.4,.8-2.4,1.1s2,6.1,4.5,13c2.5,6.8,4.5,12.8,4.5,13.3,0,1.3-15.3,1.3-16.5,.1-.6-.5-2-1.1-3.3-1.3-2-.3-2.8-1.9-6-11.3-3.4-10.1-3.9-11-6.2-11s-2.6,.4-4.4,11c-1,6.1-2,11.6-2.2,12.3-.4,1.5-15,1.7-15.9,.2Zm5.1-29.5c2.3-13.2,4.7-27.3,5.4-31.2l1.2-7.3h17.1c13.8-.1,16.8-.3,15.2-1.3-2.1-1.2-32.5-1.9-34.3-.8-.5,.3-3.3,13.9-6.1,30.1s-5.4,30.8-5.7,32.3c-.5,2.4-.3,2.8,1.2,2.5s2.4-4,6-24.3Zm28.1,14.8c-1.8-5.1-3.5-9.3-3.9-9.3s.4,3.3,1.8,7.3c4.1,11.1,4.4,12,4.8,11.6,.3-.2-1-4.6-2.7-9.6Zm5.7-23.3c1.4-.5,3.3-2.1,4.2-3.5,1.9-2.9,2.2-10.1,.5-11.8-.8-.8-1.1-.5-1.1,1.1,0,3.6-2.6,8.9-5.2,10.6-2.7,1.7-5.6,2.4-11,2.5-2.1,.1-3.8,.6-3.8,1.1,0,1.3,13,1.3,16.4,0Zm-5.1-6.2c3.3-1.7,4.6-3.9,4.7-7.5v-3.3h-6.4q-6.4,0-7,3c-.3,1.7-.9,4.4-1.2,6-.5,2.9-.5,3,3.6,3,2.3,0,5.1-.5,6.3-1.2Z"/><path id="pC5YGFdZD" class="cls-1" d="M739.11,132.95c-.8-.5-2.6-1-3.9-1-2.8,0-2.8,.6,1.8-25.5,5.1-28.6,8.1-46,8.1-46.7,0-.5,4.6-.8,10.1-.8h10.1l-.4,2.5c-.3,1.5,0,2.9,.8,3.3,1.1,.6,1,2.6-.5,11-2.1,11.8-2.4,11.5,6.5,11l5.8-.3,2.3-11.5c1.2-6.3,2.2-12.5,2.3-13.7,0-2.2,.3-2.3,10.1-2.3s10,0,9.7,2.3c-.2,1.2,.2,2.7,.9,3.2,1,.8,.6,4.6-1.7,18-1.7,9.4-4.1,23.5-5.5,31.5s-2.8,15.7-3.1,17.3q-.6,2.7-8.5,2.7c-4.6,0-7.9-.4-7.9-1,0-.5-1.3-1-3-1-3.6,0-3.5,.6-1-14,1.1-6.3,2-11.6,2-11.8s-3.3-.2-7.2,0l-7.3,.3-.7,4.5c-.4,2.5-1.5,8.7-2.4,13.8l-1.6,9.2h-7.1c-4,0-7.9-.5-8.7-1Zm1-5.6c0-.9,9.9-57.4,10.5-60.1,.4-1.8,1.3-2.2,5.3-2.5,2.6-.2,4.6-.7,4.5-1.3-.3-1.1-11.1-1.6-11.8-.5-.3,.5-2.4,12.3-9.1,50.5-1.3,7.7-2.4,14.1-2.4,14.3,0,.1,.7,.2,1.5,.2s1.5-.3,1.5-.6Zm38.5-8.6c.9-5.1,1.8-10.1,2.1-11,.4-1.2,0-1.8-1-1.8-1.7,0-1.8,.4-4.1,12.9-1.8,10-1.8,9.1-.1,9.1,1,0,1.9-2.8,3.1-9.2Zm4.9-28.5c.2-1,1.2-5.8,2.1-10.8,2.7-15.7,2.1-14.4,7.1-14.7,5.9-.4,5.6-2.3-.4-2.3s-7.2,.3-7.2,2.4c0,.9-1,6.9-2.2,13.4l-2.2,11.7h-9.3c-5.5,0-9.3,.4-9.3,1s4.1,1,10.4,1c9.1,0,10.5-.2,11-1.7Z"/><path id="p163GOBENZ" class="cls-1" d="M807.11,132.95c-.8-.5-2.7-1-4.2-1-1.6,0-2.8-.1-2.8-.2,0-.2,.9-5.2,1.9-11.3,1.1-6,2.9-16.4,4.1-23,4.9-28.4,6.1-35.1,6.6-36.7,.5-1.5,1.8-1.8,8.9-1.8s8.4,.3,8.8,1.8c.3,.9,1.3,2.8,2.1,4.2,1.5,2.4,3,5.7,10.6,23.3,1.9,4.4,3.6,7.5,3.7,7,.1-.4,1.2-6.4,2.3-13.3s2.6-14.9,3.2-17.7l1.1-5.3h18.4l-.5,3c-.3,2.2-.1,3,.9,2.8,1.8-.4,1.8-.1-4.7,36.3-3,16.9-5.4,31.1-5.4,31.8,0,1.4-13.6,1.5-14.5,.1-.3-.5-1.7-1-2.9-1-2,0-3-1.6-7.1-11.2-2.7-6.2-6-13.8-7.3-16.8l-2.5-5.5-3.1,17.5-3.1,17.5-6.5,.3c-3.6,.1-7.2-.2-8-.8Zm1-5.6c0-1.1,10.1-59,10.6-60.6,.4-1.4,1.6-1.8,5-1.8,2.4,0,4.4-.4,4.4-1,0-.5-.6-1-1.2-1.1-.7,0-3.3-.1-5.7-.3-3.6-.2-4.5,.1-5.2,1.8-.4,1.2-2.4,11.5-4.4,23.1-3.2,19-5.9,34-6.9,38.8-.3,1.1,.2,1.7,1.5,1.7,1,0,1.9-.3,1.9-.6Zm35.7-3.6c-7.8-18.6-13.1-30.5-13.9-31.3-.9-1,1.9,6.1,8.7,21.5,2,4.7,4.1,9.5,4.6,10.8,.5,1.2,1.1,2.2,1.4,2.2s-.1-1.5-.8-3.2Zm8.3-17.7c0-.4,1.6-9.7,3.5-20.5,1.9-10.9,3.5-19.9,3.5-20.2,0-.2,1.5-.4,3.4-.4,3.5,0,5.7-1.4,3.3-2.2-.6-.2-3-.4-5.1-.3-4.7,0-4.3-1-8.1,20.5-2.6,15.1-3.2,24-1.5,24,.6,0,1-.4,1-.9Z"/><path id="pxZaFSysY" class="cls-1" d="M876.61,132.95c-.3-.5-2.1-1-4-1h-3.3l.9-3.7c.4-2.1,2.2-11.9,3.9-21.8,3.1-18.5,5.4-31.7,7.4-41.8l1.1-5.8h24.3c13.3,0,24.7,.1,25.2,.1,.6,0,.8,1,.4,2.4-.4,1.6-.1,2.7,1,3.3,1.3,.7,1.5,1.9,.8,6.8l-.7,6-15.6,.3-15.7,.2-.6,3.1c-1.2,6.1-1.6,5.9,11.4,5.9h12l-.6,2.5c-.5,1.9-.2,2.5,1.1,2.5,1.4,0,1.6,.6,1.1,3.3-.4,1.7-.9,4.9-1.3,7l-.6,3.7h-13.8c-11.1,0-13.9,.3-13.9,1.4,0,.7-.3,2.8-.6,4.5l-.6,3.1h14.6c8,0,14.6,.2,14.6,.4,0,.3-.4,1.6-1,3-.8,2.3-.7,2.6,1.1,2.6,1.3,0,1.9,.5,1.7,1.3-.3,.6-1.3,3.6-2.3,6.5l-1.9,5.2h-22.7c-14.1,0-23-.4-23.4-1Zm5.1-29.5c2.3-13.2,4.7-27.3,5.4-31.2l1.2-7.3h19.9c16.7,0,19.9-.2,19.9-1.4,0-1.3-3.2-1.5-20.9-1.3-11.5,.1-21.2,.5-21.4,.7-.3,.3-2.8,13.8-5.6,30s-5.4,30.8-5.7,32.3c-.5,2.4-.3,2.8,1.2,2.5s2.4-4,6-24.3Zm37.9,16.5c.4-.6-3.8-1-11.9-1s-12.6,.4-12.6,1,4.6,1,11.9,1c6.9,0,12.2-.4,12.6-1Zm.5-29c0-.6-4-1-10-1s-10,.4-10,1,4,1,10,1,10-.4,10-1Z"/><path id="pRCdM7jvV" class="cls-1" d="M936.11,132.95c0-.5-1.6-1-3.6-1-3.4,0-3.5-.2-3-2.7,.7-3.4,3.9-21.6,7.2-41.3,1.3-8,2.9-16.7,3.5-19.5,.5-2.7,1.2-6,1.5-7.2,.4-2.3,.6-2.3,18.7-2.3,17.1,0,18.5,.2,23.4,2.4,4,1.9,6,3.7,9,8.2,3.6,5.5,3.8,6.1,3.8,13.8,0,6.4-.5,9-2.2,12.2-2.3,4.4-7,8.8-10.3,9.9-1.1,.3-2,1.3-2,2,0,.8,2,6.9,4.5,13.6s4.5,12.4,4.5,12.6-3.8,.3-8.5,.3-8.5-.4-8.5-.9-1.2-1.1-2.7-1.3c-2.6-.3-3.1-1.1-6.7-11.5-3.4-10-4.1-11.3-6.1-11.3-2.6,0-2.5-.1-5.1,14.8l-1.7,10.2h-7.9c-4.5,0-7.8-.4-7.8-1Zm1-6c0-1.1,9.7-56.3,10.5-59.8l.6-2.3,18,.3c16.6,.3,17.8,.2,14.7-1.2-2.4-1-7.8-1.5-19.5-1.7-9-.1-16.3,0-16.3,.2s-.9,5-2,10.7c-1,5.7-3.1,17.1-4.5,25.3-1.4,8.3-3.2,18.3-3.9,22.3-1.2,6.8-1.2,7.2,.5,7.2,1.1,0,1.9-.4,1.9-1Zm32.5-7.7c-2.3-6.8-5.5-13.8-4.2-9.3,2,7,6,18,6.4,17.6,.3-.3-.7-4-2.2-8.3Zm5.3-24.4c4.8-1.7,8-10.6,5.3-14.8-.8-1.2-1.1-.8-1.6,1.5-1,4.9-3.6,9.1-6.2,10.3-1.4,.6-5.2,1.4-8.4,1.8-3.2,.3-5.6,1-5.3,1.4,.7,1.3,12.5,1.1,16.2-.2Zm-3.3-7.2c1.8-1.5,2.7-3.3,2.8-5.7l.2-3.5-5.9-.3c-3.2-.2-6.2,.1-6.7,.5-.4,.4-1.1,3.2-1.5,6.1l-.7,5.2h4.6c3.3,0,5.3-.6,7.2-2.3Z"/><path id="pDAv6gLr7" class="cls-1" d="M1013.61,132.95c-.3-.5-1.9-1-3.4-1-3.8,0-4-.5-2.9-5.3,.5-2.3,2.5-13,4.4-23.7,1.8-10.7,3.6-20.5,3.9-21.7,.5-2.2,.2-2.3-5-2.3-3,0-5.5-.4-5.5-.9,0-.6-1.5-1.1-3.2-1.3-2.2-.2-3.2-.8-3.1-1.8,.1-.8,.7-4.8,1.3-8.7l1.2-7.3h55.8v3c0,1.9,.5,3,1.4,3,1.1,0,1.2,.9,.4,4.8-2,10.2-.8,9.2-10.8,9.2-5,0-9,.3-9,.8-.1,.4-2.2,12.6-4.8,27.2l-4.7,26.5-7.7,.3c-4.5,.2-7.9-.1-8.3-.8Zm5.2-29.5c2.3-13.2,4.3-24.1,4.3-24.2,0-.2-.8-.3-1.7-.3-1.5,0-2.4,3.2-5.6,22.3-2.1,12.2-4.1,23.3-4.4,24.5-.5,1.9-.2,2.3,1.3,2s2.4-3.8,6.1-24.3Zm-12.1-34.5l.6-4,22.4-.2c14.3-.2,22.3-.7,22.2-1.3-.3-1.1-46.7-1.4-47.4-.3-.2,.3-.7,2.7-1,5.2-.6,3.8-.4,4.6,1,4.6,1.1,0,1.8-1.2,2.2-4Z"/><path id="pnmTus2IR" class="cls-1" d="M1078.11,132.95c0-.5-1.6-1-3.6-1-3.4,0-3.5-.2-3-2.7,.3-1.6,2.4-13.4,4.6-26.3,5.1-29.3,7.7-43,8.2-43.5,.2-.3,7.9-.5,17.1-.6,23.8-.1,29,2,35.1,14.3,3.2,6.5,3.4,13.6,.5,21.3-4.3,11.5-11.8,15.5-29,15.5h-9.8l-1,5.3c-.6,2.8-1.6,8.2-2.2,12l-1.1,6.7h-7.9c-4.6,0-7.9-.4-7.9-1Zm1-5.8c0-1,9.8-57,10.5-59.9,.5-2.3,.7-2.3,17.8-2.4,13.2,0,16.6-.3,14.7-1.1-1.7-.8-35-2-35-1.3,0,0-.7,3.8-1.5,8.5-1.8,9.6-8.3,46.7-9.1,52-.3,1.9-.8,3.8-1.1,4.3-.2,.4,.5,.7,1.6,.7,1.2,0,2.1-.4,2.1-.8Zm40-32.9c3.4-3.1,5-9.6,3.2-12.9-.9-1.6-1.2-1.2-2.2,2.8-1.8,7-5.6,10.1-13,10.6-9,.7-8.3,2.2,.9,2.2,7.4,0,8.3-.2,11.1-2.7Zm-6.7-4.5c2.4-1.2,5-7.4,4.2-9.9-.6-1.7-1.4-2-6.8-1.7l-6.1,.3-1.2,6c-.9,4.2-.9,6.2-.1,6.7,1.2,.8,7.5-.1,10-1.4Z"/><path id="p1DvQAYXTz" class="cls-1" d="M1134.11,132.95c0-.5-1.5-1-3.3-1-4.4,0-5-.8-2.8-3.9,.9-1.4,2.8-4.6,4-7.1,1.3-2.5,3.6-6.7,5.1-9.5,1.5-2.7,4.9-9,7.5-14,5.9-11,9.8-18.3,16-29.7l4.7-8.8h8.4c4.6,0,8.7-.1,9.1-.2,.3-.2,1.1,1.1,1.6,2.7,.6,1.7,1.4,3.2,1.8,3.5s1.7,5.5,2.9,11.5c7.4,38.7,10.6,56.6,10.2,57-1,1-15.1,.5-15.7-.5-.3-.5-1.9-1-3.4-1-2.7,0-2.9-.3-3.7-5.7l-.9-5.8-8.7-.3-8.7-.3-3.6,7.1-3.5,7h-8.5c-5,0-8.5-.4-8.5-1Zm19.7-36.5l16.8-31.5h5.3c2.8,0,5.2-.4,5.2-1,0-1.6-4.7-2.3-9.6-1.4-4.4,.9-4.7,1.2-8.3,7.9-11.7,21.8-20.9,39-24.9,46.5-2.5,4.7-4.9,9.1-5.5,9.8-.7,.9-.3,1.2,1.6,1.2,2.3,0,4.1-2.8,19.4-31.5Zm28.3,28.8c0-3.1-1.5-6-2.3-4.7-.7,1.3,.4,7.4,1.4,7.4,.5,0,.9-1.2,.9-2.7Zm-2.9-17.8c.8-.8-2.5-23.5-3.5-23.5-.8,0-.6,5,1,16.8l.7,5.2h-6.7c-3.7,0-6.6,.4-6.6,1,0,1,14.2,1.5,15.1,.5Zm-6.6-9.7c-.4-2.4-.8-4.5-1-4.6-.4-.4-4.5,7.3-4.5,8.3,0,.3,1.4,.5,3,.5q3.1,0,2.5-4.2Z"/><path id="ppFSI8FFI" class="cls-1" d="M1207.61,132.95c-.3-.5-1.9-1-3.6-1-1.8,0-2.9-.5-2.9-1.4,0-1.2,1.6-10.4,9.5-56.1,1.4-7.7,2.5-14.3,2.5-14.7,0-.5,8.5-.8,18.8-.8,18.6,0,18.9,0,24.3,2.8,4.3,2.1,6,3.8,8.6,8.2,6.4,10.9,5.1,22.6-3.5,31-2.6,2.5-5.5,5-6.5,5.5-1.7,.9-1.5,1.9,2.8,13.3,2.5,6.8,4.5,12.7,4.5,13.3,0,1.2-15.7,1.2-16.5-.1-.3-.5-1.7-1-3-1-2,0-2.7-1.2-6.1-11.2-3.5-10.1-4.2-11.3-6.4-11.6-2.5-.3-2.6-.1-4.4,11-1.1,6.2-2.1,11.9-2.4,12.6-.5,1.5-14.8,1.7-15.7,.2Zm4.1-24c1.8-10.2,4.3-24.2,5.5-31.2l2.2-12.8h17.1c13.3-.1,16.7-.3,15.1-1.2-2.1-1.2-34.2-2-35-.9-.3,.6-2.4,12-9.1,50.6-1.3,7.7-2.4,14.1-2.4,14.3s.8,.2,1.7,0c1.3-.2,2.3-3.9,4.9-18.8Zm29.1,9.3c-1.8-5.1-3.5-9.3-3.9-9.3s.6,3.7,2.3,8.3c1.6,4.5,3.2,8.8,3.5,9.6,.2,.8,.6,1.2,.8,1s-1-4.6-2.7-9.6Zm8.2-24.7c3.1-2.8,4.5-8.4,3.1-12.1l-1.2-3-1.3,4.8c-.7,2.7-2.1,5.8-3.2,6.9-2.1,2.1-7.8,3.7-13,3.8-1.8,0-3.3,.5-3.3,1.1,0,.7,2.7,1,8.4,.8,6.5-.3,8.9-.8,10.5-2.3Zm-5.3-5.8c.9-.8,1.8-3.4,2.1-5.7l.6-4.1h-13.1l-.7,3.8c-.3,2-.9,4.8-1.2,6.1-.6,2.3-.5,2.4,5.1,1.9,3.2-.3,6.4-1.1,7.2-2Z"/><path id="p18XRSjPNk" class="cls-1" d="M1272.61,132.95c-.3-.5-2.2-1-4.1-1s-3.3-.4-3-.8c.3-.5,2.3-11.4,4.5-24.3,6.4-37.1,8.2-47.2,8.6-47.8,.1-.3,4.7-.5,10-.3q9.7,.3,9.2,2.8c-.3,1.5,.1,2.8,1.1,3.3,1.3,.8,1.3,1.8-.1,9.7-.9,4.8-1.5,8.9-1.4,9.1,.2,.1,4.6-5.4,9.8-12.3l9.4-12.6,11.3-.2c10.4-.1,12.7,.3,10.2,1.9-.5,.3-1.5,1.5-2.1,2.7-.9,1.8-.8,1.9,1,1.3,1.2-.4,2.1-.2,2.1,.4s-5.6,8.3-12.5,17.2-12.5,16.5-12.5,17,1.4,3.9,3.1,7.6c1.7,3.8,5.1,11.1,7.5,16.4s4.4,9.9,4.4,10.3c0,1-16.5,.7-17.5-.3-.6-.5-2-1.1-3.3-1.3-1.9-.2-3.2-2.5-7.6-12.8-2.9-6.8-5.8-12.6-6.4-12.8-.5-.1-1.6,3-2.3,7-.6,4-1.7,10.2-2.4,13.8l-1.1,6.5-7.6,.3c-4.5,.2-7.9-.1-8.3-.8Zm5.1-29.5c2.3-13.2,4.7-27.2,5.4-31.2l1.2-7.2,4.6-.3c2.7-.2,4.5-.7,4.2-1.3-.5-1-9.5-1.4-11-.5-.4,.3-3.1,13.8-5.9,30s-5.4,30.8-5.7,32.3c-.5,2.4-.3,2.8,1.2,2.5s2.4-4,6-24.3Zm29.3,18.6c-1.2-2.8-2.4-5-2.6-4.8s.6,2.7,1.8,5.6c1.2,2.8,2.4,5,2.6,4.8s-.6-2.7-1.8-5.6Zm-4.8-11.5c-1.1-2.5-2.2-4.6-2.5-4.6s.5,2.3,1.6,5c1.1,2.8,2.3,4.9,2.5,4.7s-.5-2.5-1.6-5.1Zm9-31.6c9.9-13.4,10.4-14,13.8-14,2,0,4.3-.4,5.1-1,2.3-1.4-.7-2.2-7.1-1.7-4.2,.4-5.6,.9-6.9,2.8-.8,1.3-5.7,7.9-10.7,14.7-5.1,6.8-9.3,12.6-9.3,12.8s1.1,.4,2.4,.4c2,0,4.4-2.7,12.7-14Z"/><path id="pqAn6Oy5A" class="cls-1" d="M405.11,99.95l-4.4-.5-.3-4.5c-.1-2.5-.7-7.5-1.3-11.2-.5-3.7-1-7.3-1-8,0-1,5-1.3,25-1.2,14.5,0,25.5,.5,26,1,.6,.6-1,1.7-4.5,2.9-3,1-5.5,2.1-5.5,2.5,0,1.1,12.8,0,18.4-1.6,2.7-.8,7-1.4,9.6-1.4s5.5-.7,6.6-1.5c1.6-1.2,9.3-1.4,50.9-1.4s48.5,.2,45.3,1.4c-2,.8-6.8,1.7-10.5,2-3.7,.4-7.6,1.1-8.5,1.6s-3.4,.9-5.6,.9c-6.1,0-13.2,1.2-13.2,2.2,0,1.5,6.4,3.7,13.1,4.4,10.9,1.1,9,2.8-4.4,3.8-11.3,.9-10.9,.9-17.9,.1-5-.7-6.2-.5-10.2,1.9-3,1.8-5.9,2.6-9,2.6-4.9,0-6.1,1.3-2.3,2.4,6.6,1.9-4.7,2.4-46.3,2.3-25-.1-47.5-.4-50-.7Z"/><path id="p176qOolHq" class="cls-1" d="M22.71,69.45c-2.7-.8-6.7-1.1-9-.9-4.8,.6-10.6-.3-10.6-1.6,0-.6,1-1,2.3-1s3.4-1.1,4.6-2.4c1.3-1.4,3.9-2.6,6.3-3,4.9-.8,4.6-1.4-1.3-2.5l-4.4-.9,6-.1c3.3-.1,9.5-.4,13.8-.7,5.2-.4,7.7-.2,7.7,.5,0,.6-1.7,1.1-3.7,1.1l-3.8,.1,2.8,2.3c2.8,2.2,2.8,2.4,1.6,6.5-1.1,3.7-1.5,4.1-4.3,4-1.7,0-5.3-.7-8-1.4Z"/><path id="p13ZzZIwAZ" class="cls-1" d="M36.11,69.75c0-.4,1.1-1.5,2.5-2.4,2.3-1.5,2.6-1.5,5.1,.5,1.5,1.2,2.5,2.1,2.3,2.2-2,.6-9.9,.4-9.9-.3Z"/><path id="pcEopneR4" class="cls-1" d="M386.21,43.25c-1.7-3.2-4.9-8.2-7.1-11.1s-4-5.3-4-5.5c0-.1,7.8-.3,17.3-.4,9.4-.1,19.6-.4,22.5-.7,3-.3,5.2-.1,5.2,.4,0,.6-1.1,1-2.4,1-1.4,0-2.7,.4-3,.8-.2,.4,3.7,.7,8.7,.5,25.9-.9,42.6-.2,49.6,2.2,3.6,1.2,7.3,1.6,12.4,1.3,3.9-.3,8.2-.1,9.5,.3,1.2,.5,5.9,.9,10.5,1,7.1,.2,7.7,.4,4.7,1.2-5.7,1.5-6.3,1.7-5.9,2.1,.2,.3,10,.7,21.8,1,19.8,.5,21.6,.8,23.3,2.6,1,1.1,2.3,2,2.8,2,.6,0,1,.5,1,1,0,1.4-18.3,1.3-27.7-.2-9.5-1.4-13.2-.1-4.8,1.8,3.3,.7,7.7,1.3,9.7,1.3,4.2,.1,6.8,.9,6.8,2.2,0,.5-31.2,.9-73.9,.9h-74l-3-5.7Z"/></g></g><g id="l6AZOnrbWRks255hr2NJ1v4"><g><path id="pNhYEGz2N" class="cls-3" d="M1139.51,315.75c-.3-.4,0-.8,.5-.8,.6,0,1.1-1.2,1.1-2.6,0-3.4,1.5-2.3,1.8,1.4,.1,2-.2,2.9-1.3,2.9-.9,0-1.8-.4-2.1-.9Z"/><path id="p11norFIf6" class="cls-3" d="M593.01,160.35c-.2-2.7-.3-6.8-.1-9.1l.3-4.3h762.9v17h-378.4c-208.1,0-379.7,.3-381.4,.6q-3,.6-3.3-4.2Z"/><path id="pEPiIfL9S" class="cls-3" d="M350.11,103.95c-1.1-.7-.6-1,2.2-1,2,0,4,.5,4.3,1,.8,1.3-4.5,1.3-6.5,0Z"/></g></g><g id="l106TkHfEsKVISlvO74SSco"><path id="pDRuSFUq1" class="cls-2" d="M593.31,168.25l.3-6.8,381.3-.3,381.2-.2v14H593.01l.3-6.7Z"/></g></g></svg>